<svg width="538" height="380" viewBox="0 0 538 380" fill="none" xmlns="http://www.w3.org/2000/svg">
<path d="M0 25C0 11.1929 11.1929 0 25 0H513C526.807 0 538 11.1929 538 25V355C538 368.807 526.807 380 513 380H25C11.1929 380 0 368.807 0 355V25Z" fill="#DB0334"/>
<path d="M44.032 317L36.704 294.6H42.08L48.448 314.44H45.76L52.416 294.6H57.216L63.616 314.44H61.024L67.552 294.6H72.512L65.184 317H59.616L53.952 299.592H55.424L49.6 317H44.032ZM82.3168 317.256C80.3541 317.256 78.6261 316.872 77.1328 316.104C75.6608 315.336 74.5194 314.291 73.7088 312.968C72.8981 311.624 72.4928 310.099 72.4928 308.392C72.4928 306.664 72.8874 305.139 73.6768 303.816C74.4874 302.472 75.5861 301.427 76.9728 300.68C78.3594 299.912 79.9274 299.528 81.6768 299.528C83.3621 299.528 84.8768 299.891 86.2208 300.616C87.5861 301.32 88.6634 302.344 89.4528 303.688C90.2421 305.011 90.6368 306.6 90.6368 308.456C90.6368 308.648 90.6261 308.872 90.6048 309.128C90.5834 309.363 90.5621 309.587 90.5408 309.8H76.5568V306.888H87.9167L85.9968 307.752C85.9968 306.856 85.8154 306.077 85.4528 305.416C85.0901 304.755 84.5888 304.243 83.9488 303.88C83.3088 303.496 82.5621 303.304 81.7088 303.304C80.8554 303.304 80.0981 303.496 79.4368 303.88C78.7968 304.243 78.2954 304.765 77.9328 305.448C77.5701 306.109 77.3888 306.899 77.3888 307.816V308.584C77.3888 309.523 77.5914 310.355 77.9968 311.08C78.4234 311.784 79.0101 312.328 79.7568 312.712C80.5248 313.075 81.4208 313.256 82.4448 313.256C83.3621 313.256 84.1621 313.117 84.8448 312.84C85.5488 312.563 86.1888 312.147 86.7648 311.592L89.4208 314.472C88.6314 315.368 87.6394 316.061 86.4448 316.552C85.2501 317.021 83.8741 317.256 82.3168 317.256ZM93.9603 317V293.256H98.9523V317H93.9603ZM111.905 317.256C110.049 317.256 108.396 316.883 106.945 316.136C105.495 315.368 104.353 314.312 103.521 312.968C102.711 311.624 102.305 310.099 102.305 308.392C102.305 306.664 102.711 305.139 103.521 303.816C104.353 302.472 105.495 301.427 106.945 300.68C108.396 299.912 110.049 299.528 111.905 299.528C113.719 299.528 115.297 299.912 116.641 300.68C117.985 301.427 118.977 302.504 119.617 303.912L115.745 305.992C115.297 305.181 114.732 304.584 114.049 304.2C113.388 303.816 112.663 303.624 111.873 303.624C111.02 303.624 110.252 303.816 109.569 304.2C108.887 304.584 108.343 305.128 107.937 305.832C107.553 306.536 107.361 307.389 107.361 308.392C107.361 309.395 107.553 310.248 107.937 310.952C108.343 311.656 108.887 312.2 109.569 312.584C110.252 312.968 111.02 313.16 111.873 313.16C112.663 313.16 113.388 312.979 114.049 312.616C114.732 312.232 115.297 311.624 115.745 310.792L119.617 312.904C118.977 314.291 117.985 315.368 116.641 316.136C115.297 316.883 113.719 317.256 111.905 317.256ZM130.465 317.256C128.63 317.256 126.998 316.872 125.569 316.104C124.161 315.336 123.041 314.291 122.209 312.968C121.398 311.624 120.993 310.099 120.993 308.392C120.993 306.664 121.398 305.139 122.209 303.816C123.041 302.472 124.161 301.427 125.569 300.68C126.998 299.912 128.63 299.528 130.465 299.528C132.278 299.528 133.899 299.912 135.329 300.68C136.758 301.427 137.878 302.461 138.689 303.784C139.499 305.107 139.905 306.643 139.905 308.392C139.905 310.099 139.499 311.624 138.689 312.968C137.878 314.291 136.758 315.336 135.329 316.104C133.899 316.872 132.278 317.256 130.465 317.256ZM130.465 313.16C131.297 313.16 132.043 312.968 132.705 312.584C133.366 312.2 133.889 311.656 134.273 310.952C134.657 310.227 134.849 309.373 134.849 308.392C134.849 307.389 134.657 306.536 134.273 305.832C133.889 305.128 133.366 304.584 132.705 304.2C132.043 303.816 131.297 303.624 130.465 303.624C129.633 303.624 128.886 303.816 128.225 304.2C127.563 304.584 127.03 305.128 126.625 305.832C126.241 306.536 126.049 307.389 126.049 308.392C126.049 309.373 126.241 310.227 126.625 310.952C127.03 311.656 127.563 312.2 128.225 312.584C128.886 312.968 129.633 313.16 130.465 313.16ZM165.29 299.528C166.655 299.528 167.86 299.805 168.906 300.36C169.972 300.893 170.804 301.725 171.402 302.856C172.02 303.965 172.33 305.395 172.33 307.144V317H167.338V307.912C167.338 306.525 167.05 305.501 166.474 304.84C165.898 304.179 165.087 303.848 164.042 303.848C163.316 303.848 162.666 304.019 162.09 304.36C161.514 304.68 161.066 305.171 160.746 305.832C160.426 306.493 160.266 307.336 160.266 308.36V317H155.274V307.912C155.274 306.525 154.986 305.501 154.41 304.84C153.855 304.179 153.055 303.848 152.01 303.848C151.284 303.848 150.634 304.019 150.058 304.36C149.482 304.68 149.034 305.171 148.714 305.832C148.394 306.493 148.234 307.336 148.234 308.36V317H143.242V299.784H148.01V304.488L147.114 303.112C147.711 301.939 148.554 301.053 149.642 300.456C150.751 299.837 152.01 299.528 153.418 299.528C154.996 299.528 156.372 299.933 157.546 300.744C158.74 301.533 159.53 302.749 159.914 304.392L158.154 303.912C158.73 302.568 159.647 301.501 160.906 300.712C162.186 299.923 163.647 299.528 165.29 299.528ZM185.473 317.256C183.51 317.256 181.782 316.872 180.289 316.104C178.817 315.336 177.676 314.291 176.865 312.968C176.054 311.624 175.649 310.099 175.649 308.392C175.649 306.664 176.044 305.139 176.833 303.816C177.644 302.472 178.742 301.427 180.129 300.68C181.516 299.912 183.084 299.528 184.833 299.528C186.518 299.528 188.033 299.891 189.377 300.616C190.742 301.32 191.82 302.344 192.609 303.688C193.398 305.011 193.793 306.6 193.793 308.456C193.793 308.648 193.782 308.872 193.761 309.128C193.74 309.363 193.718 309.587 193.697 309.8H179.713V306.888H191.073L189.153 307.752C189.153 306.856 188.972 306.077 188.609 305.416C188.246 304.755 187.745 304.243 187.105 303.88C186.465 303.496 185.718 303.304 184.865 303.304C184.012 303.304 183.254 303.496 182.593 303.88C181.953 304.243 181.452 304.765 181.089 305.448C180.726 306.109 180.545 306.899 180.545 307.816V308.584C180.545 309.523 180.748 310.355 181.153 311.08C181.58 311.784 182.166 312.328 182.913 312.712C183.681 313.075 184.577 313.256 185.601 313.256C186.518 313.256 187.318 313.117 188.001 312.84C188.705 312.563 189.345 312.147 189.921 311.592L192.577 314.472C191.788 315.368 190.796 316.061 189.601 316.552C188.406 317.021 187.03 317.256 185.473 317.256ZM217.251 317.384C215.523 317.384 213.912 317.107 212.419 316.552C210.947 315.976 209.667 315.165 208.579 314.12C207.491 313.075 206.638 311.848 206.019 310.44C205.422 309.032 205.123 307.485 205.123 305.8C205.123 304.115 205.422 302.568 206.019 301.16C206.638 299.752 207.491 298.525 208.579 297.48C209.688 296.435 210.979 295.635 212.451 295.08C213.923 294.504 215.534 294.216 217.283 294.216C219.224 294.216 220.974 294.557 222.531 295.24C224.11 295.901 225.432 296.883 226.499 298.184L223.171 301.256C222.403 300.381 221.55 299.731 220.611 299.304C219.672 298.856 218.648 298.632 217.539 298.632C216.494 298.632 215.534 298.803 214.659 299.144C213.784 299.485 213.027 299.976 212.387 300.616C211.747 301.256 211.246 302.013 210.883 302.888C210.542 303.763 210.371 304.733 210.371 305.8C210.371 306.867 210.542 307.837 210.883 308.712C211.246 309.587 211.747 310.344 212.387 310.984C213.027 311.624 213.784 312.115 214.659 312.456C215.534 312.797 216.494 312.968 217.539 312.968C218.648 312.968 219.672 312.755 220.611 312.328C221.55 311.88 222.403 311.208 223.171 310.312L226.499 313.384C225.432 314.685 224.11 315.677 222.531 316.36C220.974 317.043 219.214 317.384 217.251 317.384ZM240.114 317V313.64L239.794 312.904V306.888C239.794 305.821 239.463 304.989 238.802 304.392C238.162 303.795 237.17 303.496 235.826 303.496C234.909 303.496 234.002 303.645 233.106 303.944C232.231 304.221 231.485 304.605 230.866 305.096L229.074 301.608C230.013 300.947 231.143 300.435 232.466 300.072C233.789 299.709 235.133 299.528 236.498 299.528C239.122 299.528 241.159 300.147 242.61 301.384C244.061 302.621 244.786 304.552 244.786 307.176V317H240.114ZM234.866 317.256C233.522 317.256 232.37 317.032 231.41 316.584C230.45 316.115 229.714 315.485 229.202 314.696C228.69 313.907 228.434 313.021 228.434 312.04C228.434 311.016 228.679 310.12 229.17 309.352C229.682 308.584 230.482 307.987 231.57 307.56C232.658 307.112 234.077 306.888 235.826 306.888H240.402V309.8H236.37C235.197 309.8 234.386 309.992 233.938 310.376C233.511 310.76 233.298 311.24 233.298 311.816C233.298 312.456 233.543 312.968 234.034 313.352C234.546 313.715 235.239 313.896 236.114 313.896C236.946 313.896 237.693 313.704 238.354 313.32C239.015 312.915 239.495 312.328 239.794 311.56L240.562 313.864C240.199 314.973 239.538 315.816 238.578 316.392C237.618 316.968 236.381 317.256 234.866 317.256ZM249.304 317V299.784H254.072V304.648L253.4 303.24C253.912 302.024 254.733 301.107 255.864 300.488C256.995 299.848 258.371 299.528 259.992 299.528V304.136C259.779 304.115 259.587 304.104 259.416 304.104C259.245 304.083 259.064 304.072 258.872 304.072C257.507 304.072 256.397 304.467 255.544 305.256C254.712 306.024 254.296 307.229 254.296 308.872V317H249.304ZM270.227 317.256C268.606 317.256 267.145 316.893 265.843 316.168C264.542 315.421 263.507 314.387 262.739 313.064C261.993 311.741 261.619 310.184 261.619 308.392C261.619 306.579 261.993 305.011 262.739 303.688C263.507 302.365 264.542 301.341 265.843 300.616C267.145 299.891 268.606 299.528 270.227 299.528C271.678 299.528 272.947 299.848 274.035 300.488C275.123 301.128 275.966 302.099 276.563 303.4C277.161 304.701 277.459 306.365 277.459 308.392C277.459 310.397 277.171 312.061 276.595 313.384C276.019 314.685 275.187 315.656 274.099 316.296C273.033 316.936 271.742 317.256 270.227 317.256ZM271.091 313.16C271.902 313.16 272.638 312.968 273.299 312.584C273.961 312.2 274.483 311.656 274.867 310.952C275.273 310.227 275.475 309.373 275.475 308.392C275.475 307.389 275.273 306.536 274.867 305.832C274.483 305.128 273.961 304.584 273.299 304.2C272.638 303.816 271.902 303.624 271.091 303.624C270.259 303.624 269.513 303.816 268.851 304.2C268.19 304.584 267.657 305.128 267.251 305.832C266.867 306.536 266.675 307.389 266.675 308.392C266.675 309.373 266.867 310.227 267.251 310.952C267.657 311.656 268.19 312.2 268.851 312.584C269.513 312.968 270.259 313.16 271.091 313.16ZM275.603 317V313.48L275.699 308.36L275.379 303.272V293.256H280.371V317H275.603ZM304.358 317.384C301.179 317.384 298.694 316.499 296.902 314.728C295.11 312.957 294.214 310.429 294.214 307.144V294.6H299.398V306.952C299.398 309.085 299.835 310.621 300.71 311.56C301.585 312.499 302.811 312.968 304.39 312.968C305.969 312.968 307.195 312.499 308.07 311.56C308.945 310.621 309.382 309.085 309.382 306.952V294.6H314.502V307.144C314.502 310.429 313.606 312.957 311.814 314.728C310.022 316.499 307.537 317.384 304.358 317.384ZM319.625 317V294.6H329.321C331.326 294.6 333.054 294.931 334.505 295.592C335.955 296.232 337.075 297.16 337.865 298.376C338.654 299.592 339.049 301.043 339.049 302.728C339.049 304.392 338.654 305.832 337.865 307.048C337.075 308.264 335.955 309.203 334.505 309.864C333.054 310.504 331.326 310.824 329.321 310.824H322.505L324.809 308.488V317H319.625ZM324.809 309.064L322.505 306.6H329.033C330.633 306.6 331.827 306.259 332.617 305.576C333.406 304.893 333.801 303.944 333.801 302.728C333.801 301.491 333.406 300.531 332.617 299.848C331.827 299.165 330.633 298.824 329.033 298.824H322.505L324.809 296.36V309.064ZM342.75 317V294.6H347.934V317H342.75Z" fill="white"/>
<path d="M43.6213 224.48V222.92L54.7513 209H57.1513L46.1113 222.92L44.9413 222.56H61.8313V224.48H43.6213ZM55.4713 230V224.48L55.5313 222.56V217.7H57.6313V230H55.4713ZM73.6458 230.18C72.1258 230.18 70.6858 229.94 69.3258 229.46C67.9858 228.96 66.9058 228.3 66.0858 227.48L67.1358 225.77C67.8158 226.47 68.7258 227.05 69.8658 227.51C71.0258 227.97 72.2858 228.2 73.6458 228.2C75.3858 228.2 76.7158 227.82 77.6358 227.06C78.5758 226.3 79.0458 225.28 79.0458 224C79.0458 222.72 78.5858 221.7 77.6658 220.94C76.7658 220.18 75.3358 219.8 73.3758 219.8H71.8758V218.21L78.3558 210.08L78.6558 210.92H66.9558V209H80.4558V210.53L73.9758 218.66L72.9258 217.97H73.7358C76.2558 217.97 78.1358 218.53 79.3758 219.65C80.6358 220.77 81.2658 222.21 81.2658 223.97C81.2658 225.15 80.9858 226.21 80.4258 227.15C79.8658 228.09 79.0158 228.83 77.8758 229.37C76.7558 229.91 75.3458 230.18 73.6458 230.18ZM96.2894 230.18C94.6094 230.18 93.1594 229.94 91.9394 229.46C90.7394 228.98 89.8094 228.29 89.1494 227.39C88.5094 226.47 88.1894 225.39 88.1894 224.15C88.1894 222.95 88.4994 221.93 89.1194 221.09C89.7594 220.23 90.6794 219.57 91.8794 219.11C93.0994 218.65 94.5694 218.42 96.2894 218.42C97.9894 218.42 99.4494 218.65 100.669 219.11C101.889 219.57 102.819 220.23 103.459 221.09C104.119 221.93 104.449 222.95 104.449 224.15C104.449 225.39 104.119 226.47 103.459 227.39C102.799 228.29 101.859 228.98 100.639 229.46C99.4194 229.94 97.9694 230.18 96.2894 230.18ZM96.2894 228.35C98.1494 228.35 99.5994 227.97 100.639 227.21C101.699 226.45 102.229 225.42 102.229 224.12C102.229 222.82 101.699 221.8 100.639 221.06C99.5994 220.3 98.1494 219.92 96.2894 219.92C94.4294 219.92 92.9794 220.3 91.9394 221.06C90.8994 221.8 90.3794 222.82 90.3794 224.12C90.3794 225.42 90.8994 226.45 91.9394 227.21C92.9794 227.97 94.4294 228.35 96.2894 228.35ZM96.2894 219.65C94.7294 219.65 93.3994 219.44 92.2994 219.02C91.2194 218.6 90.3894 218 89.8094 217.22C89.2294 216.42 88.9394 215.47 88.9394 214.37C88.9394 213.21 89.2394 212.22 89.8394 211.4C90.4594 210.56 91.3194 209.92 92.4194 209.48C93.5194 209.04 94.8094 208.82 96.2894 208.82C97.7694 208.82 99.0594 209.04 100.159 209.48C101.279 209.92 102.149 210.56 102.769 211.4C103.389 212.22 103.699 213.21 103.699 214.37C103.699 215.47 103.409 216.42 102.829 217.22C102.249 218 101.399 218.6 100.279 219.02C99.1794 219.44 97.8494 219.65 96.2894 219.65ZM96.2894 218.21C97.9294 218.21 99.2094 217.87 100.129 217.19C101.049 216.51 101.509 215.6 101.509 214.46C101.509 213.26 101.029 212.33 100.069 211.67C99.1294 210.99 97.8694 210.65 96.2894 210.65C94.7094 210.65 93.4494 210.99 92.5094 211.67C91.5694 212.33 91.0994 213.25 91.0994 214.43C91.0994 215.59 91.5494 216.51 92.4494 217.19C93.3694 217.87 94.6494 218.21 96.2894 218.21ZM115.13 230L124.19 209.96L124.85 210.92H111.86L112.97 209.87V214.85H110.84V209H126.26V210.53L117.47 230H115.13ZM174.931 230.18C173.411 230.18 171.971 229.94 170.611 229.46C169.271 228.96 168.191 228.3 167.371 227.48L168.421 225.77C169.101 226.47 170.011 227.05 171.151 227.51C172.311 227.97 173.571 228.2 174.931 228.2C176.671 228.2 178.001 227.82 178.921 227.06C179.861 226.3 180.331 225.28 180.331 224C180.331 222.72 179.871 221.7 178.951 220.94C178.051 220.18 176.621 219.8 174.661 219.8H173.161V218.21L179.641 210.08L179.941 210.92H168.241V209H181.741V210.53L175.261 218.66L174.211 217.97H175.021C177.541 217.97 179.421 218.53 180.661 219.65C181.921 220.77 182.551 222.21 182.551 223.97C182.551 225.15 182.271 226.21 181.711 227.15C181.151 228.09 180.301 228.83 179.161 229.37C178.041 229.91 176.631 230.18 174.931 230.18ZM189.235 224.48V222.92L200.365 209H202.765L191.725 222.92L190.555 222.56H207.445V224.48H189.235ZM201.085 230V224.48L201.145 222.56V217.7H203.245V230H201.085ZM221.701 230.18C220.021 230.18 218.571 229.94 217.351 229.46C216.151 228.98 215.221 228.29 214.561 227.39C213.921 226.47 213.601 225.39 213.601 224.15C213.601 222.95 213.911 221.93 214.531 221.09C215.171 220.23 216.091 219.57 217.291 219.11C218.511 218.65 219.981 218.42 221.701 218.42C223.401 218.42 224.861 218.65 226.081 219.11C227.301 219.57 228.232 220.23 228.872 221.09C229.532 221.93 229.862 222.95 229.862 224.15C229.862 225.39 229.532 226.47 228.872 227.39C228.212 228.29 227.272 228.98 226.051 229.46C224.831 229.94 223.381 230.18 221.701 230.18ZM221.701 228.35C223.561 228.35 225.011 227.97 226.051 227.21C227.111 226.45 227.641 225.42 227.641 224.12C227.641 222.82 227.111 221.8 226.051 221.06C225.011 220.3 223.561 219.92 221.701 219.92C219.841 219.92 218.391 220.3 217.351 221.06C216.311 221.8 215.791 222.82 215.791 224.12C215.791 225.42 216.311 226.45 217.351 227.21C218.391 227.97 219.841 228.35 221.701 228.35ZM221.701 219.65C220.141 219.65 218.811 219.44 217.711 219.02C216.631 218.6 215.801 218 215.221 217.22C214.641 216.42 214.351 215.47 214.351 214.37C214.351 213.21 214.651 212.22 215.251 211.4C215.871 210.56 216.731 209.92 217.831 209.48C218.931 209.04 220.221 208.82 221.701 208.82C223.181 208.82 224.471 209.04 225.571 209.48C226.691 209.92 227.561 210.56 228.182 211.4C228.801 212.22 229.111 213.21 229.111 214.37C229.111 215.47 228.821 216.42 228.241 217.22C227.661 218 226.811 218.6 225.692 219.02C224.591 219.44 223.261 219.65 221.701 219.65ZM221.701 218.21C223.341 218.21 224.621 217.87 225.541 217.19C226.461 216.51 226.921 215.6 226.921 214.46C226.921 213.26 226.441 212.33 225.482 211.67C224.541 210.99 223.281 210.65 221.701 210.65C220.121 210.65 218.861 210.99 217.921 211.67C216.981 212.33 216.511 213.25 216.511 214.43C216.511 215.59 216.961 216.51 217.861 217.19C218.781 217.87 220.061 218.21 221.701 218.21ZM244.832 230.18C243.152 230.18 241.702 229.94 240.482 229.46C239.282 228.98 238.352 228.29 237.692 227.39C237.052 226.47 236.732 225.39 236.732 224.15C236.732 222.95 237.042 221.93 237.662 221.09C238.302 220.23 239.222 219.57 240.422 219.11C241.642 218.65 243.112 218.42 244.832 218.42C246.532 218.42 247.992 218.65 249.212 219.11C250.432 219.57 251.362 220.23 252.002 221.09C252.662 221.93 252.992 222.95 252.992 224.15C252.992 225.39 252.662 226.47 252.002 227.39C251.342 228.29 250.402 228.98 249.182 229.46C247.962 229.94 246.512 230.18 244.832 230.18ZM244.832 228.35C246.692 228.35 248.142 227.97 249.182 227.21C250.242 226.45 250.772 225.42 250.772 224.12C250.772 222.82 250.242 221.8 249.182 221.06C248.142 220.3 246.692 219.92 244.832 219.92C242.972 219.92 241.522 220.3 240.482 221.06C239.442 221.8 238.922 222.82 238.922 224.12C238.922 225.42 239.442 226.45 240.482 227.21C241.522 227.97 242.972 228.35 244.832 228.35ZM244.832 219.65C243.272 219.65 241.942 219.44 240.842 219.02C239.762 218.6 238.932 218 238.352 217.22C237.772 216.42 237.482 215.47 237.482 214.37C237.482 213.21 237.782 212.22 238.382 211.4C239.002 210.56 239.862 209.92 240.962 209.48C242.062 209.04 243.352 208.82 244.832 208.82C246.312 208.82 247.602 209.04 248.702 209.48C249.822 209.92 250.692 210.56 251.312 211.4C251.932 212.22 252.242 213.21 252.242 214.37C252.242 215.47 251.952 216.42 251.372 217.22C250.792 218 249.942 218.6 248.822 219.02C247.722 219.44 246.392 219.65 244.832 219.65ZM244.832 218.21C246.472 218.21 247.752 217.87 248.672 217.19C249.592 216.51 250.052 215.6 250.052 214.46C250.052 213.26 249.572 212.33 248.612 211.67C247.672 210.99 246.412 210.65 244.832 210.65C243.252 210.65 241.992 210.99 241.052 211.67C240.112 212.33 239.642 213.25 239.642 214.43C239.642 215.59 240.092 216.51 240.992 217.19C241.912 217.87 243.192 218.21 244.832 218.21ZM299.198 230V209.9L300.158 210.92H294.248V209H301.358V230H299.198ZM309.988 230V228.47L318.718 219.92C319.518 219.14 320.118 218.46 320.518 217.88C320.918 217.28 321.188 216.72 321.328 216.2C321.468 215.68 321.538 215.19 321.538 214.73C321.538 213.51 321.118 212.55 320.278 211.85C319.458 211.15 318.238 210.8 316.618 210.8C315.378 210.8 314.278 210.99 313.318 211.37C312.378 211.75 311.568 212.34 310.888 213.14L309.358 211.82C310.178 210.86 311.228 210.12 312.508 209.6C313.788 209.08 315.218 208.82 316.798 208.82C318.218 208.82 319.448 209.05 320.488 209.51C321.528 209.95 322.328 210.6 322.888 211.46C323.468 212.32 323.758 213.33 323.758 214.49C323.758 215.17 323.658 215.84 323.458 216.5C323.278 217.16 322.938 217.86 322.438 218.6C321.958 219.32 321.248 220.14 320.308 221.06L312.298 228.92L311.698 228.08H324.718V230H309.988ZM331.039 230V228.47L339.769 219.92C340.569 219.14 341.169 218.46 341.569 217.88C341.969 217.28 342.239 216.72 342.379 216.2C342.519 215.68 342.589 215.19 342.589 214.73C342.589 213.51 342.169 212.55 341.329 211.85C340.509 211.15 339.289 210.8 337.669 210.8C336.429 210.8 335.329 210.99 334.369 211.37C333.429 211.75 332.619 212.34 331.939 213.14L330.409 211.82C331.229 210.86 332.279 210.12 333.559 209.6C334.839 209.08 336.269 208.82 337.849 208.82C339.269 208.82 340.499 209.05 341.539 209.51C342.579 209.95 343.379 210.6 343.939 211.46C344.519 212.32 344.809 213.33 344.809 214.49C344.809 215.17 344.709 215.84 344.509 216.5C344.329 217.16 343.989 217.86 343.489 218.6C343.009 219.32 342.299 220.14 341.359 221.06L333.349 228.92L332.749 228.08H345.769V230H331.039ZM358.749 230.18C357.229 230.18 355.789 229.94 354.429 229.46C353.089 228.96 352.009 228.3 351.189 227.48L352.239 225.77C352.919 226.47 353.829 227.05 354.969 227.51C356.129 227.97 357.389 228.2 358.749 228.2C360.489 228.2 361.819 227.82 362.739 227.06C363.679 226.3 364.149 225.28 364.149 224C364.149 222.72 363.689 221.7 362.769 220.94C361.869 220.18 360.439 219.8 358.479 219.8H356.979V218.21L363.459 210.08L363.759 210.92H352.059V209H365.559V210.53L359.079 218.66L358.029 217.97H358.839C361.359 217.97 363.239 218.53 364.479 219.65C365.739 220.77 366.369 222.21 366.369 223.97C366.369 225.15 366.089 226.21 365.529 227.15C364.969 228.09 364.119 228.83 362.979 229.37C361.859 229.91 360.449 230.18 358.749 230.18ZM416.948 230.18C415.268 230.18 413.818 229.94 412.598 229.46C411.398 228.98 410.468 228.29 409.808 227.39C409.168 226.47 408.848 225.39 408.848 224.15C408.848 222.95 409.158 221.93 409.778 221.09C410.418 220.23 411.338 219.57 412.538 219.11C413.758 218.65 415.228 218.42 416.948 218.42C418.648 218.42 420.108 218.65 421.328 219.11C422.548 219.57 423.478 220.23 424.118 221.09C424.778 221.93 425.108 222.95 425.108 224.15C425.108 225.39 424.778 226.47 424.118 227.39C423.458 228.29 422.518 228.98 421.298 229.46C420.078 229.94 418.628 230.18 416.948 230.18ZM416.948 228.35C418.808 228.35 420.258 227.97 421.298 227.21C422.358 226.45 422.888 225.42 422.888 224.12C422.888 222.82 422.358 221.8 421.298 221.06C420.258 220.3 418.808 219.92 416.948 219.92C415.088 219.92 413.638 220.3 412.598 221.06C411.558 221.8 411.038 222.82 411.038 224.12C411.038 225.42 411.558 226.45 412.598 227.21C413.638 227.97 415.088 228.35 416.948 228.35ZM416.948 219.65C415.388 219.65 414.058 219.44 412.958 219.02C411.878 218.6 411.048 218 410.468 217.22C409.888 216.42 409.598 215.47 409.598 214.37C409.598 213.21 409.898 212.22 410.498 211.4C411.118 210.56 411.978 209.92 413.078 209.48C414.178 209.04 415.468 208.82 416.948 208.82C418.428 208.82 419.718 209.04 420.818 209.48C421.938 209.92 422.808 210.56 423.428 211.4C424.048 212.22 424.358 213.21 424.358 214.37C424.358 215.47 424.068 216.42 423.488 217.22C422.908 218 422.058 218.6 420.938 219.02C419.838 219.44 418.508 219.65 416.948 219.65ZM416.948 218.21C418.588 218.21 419.868 217.87 420.788 217.19C421.708 216.51 422.168 215.6 422.168 214.46C422.168 213.26 421.688 212.33 420.728 211.67C419.788 210.99 418.528 210.65 416.948 210.65C415.368 210.65 414.108 210.99 413.168 211.67C412.228 212.33 411.758 213.25 411.758 214.43C411.758 215.59 412.208 216.51 413.108 217.19C414.028 217.87 415.308 218.21 416.948 218.21ZM438.638 208.82C440.498 208.82 442.068 209.24 443.348 210.08C444.628 210.9 445.598 212.09 446.258 213.65C446.918 215.21 447.248 217.1 447.248 219.32C447.248 221.68 446.838 223.67 446.018 225.29C445.218 226.91 444.098 228.13 442.658 228.95C441.218 229.77 439.548 230.18 437.648 230.18C436.708 230.18 435.808 230.09 434.948 229.91C434.108 229.73 433.348 229.44 432.668 229.04L433.538 227.3C434.078 227.66 434.698 227.92 435.398 228.08C436.118 228.22 436.858 228.29 437.618 228.29C439.878 228.29 441.678 227.57 443.018 226.13C444.378 224.69 445.058 222.54 445.058 219.68C445.058 219.22 445.028 218.67 444.968 218.03C444.928 217.39 444.818 216.75 444.638 216.11L445.388 216.68C445.188 217.72 444.758 218.61 444.098 219.35C443.458 220.07 442.658 220.62 441.698 221C440.758 221.38 439.708 221.57 438.548 221.57C437.168 221.57 435.938 221.31 434.858 220.79C433.798 220.27 432.968 219.54 432.368 218.6C431.768 217.66 431.468 216.55 431.468 215.27C431.468 213.95 431.778 212.81 432.398 211.85C433.018 210.89 433.868 210.15 434.948 209.63C436.048 209.09 437.278 208.82 438.638 208.82ZM438.728 210.65C437.728 210.65 436.838 210.84 436.058 211.22C435.298 211.58 434.698 212.1 434.258 212.78C433.818 213.46 433.598 214.27 433.598 215.21C433.598 216.59 434.068 217.69 435.008 218.51C435.968 219.33 437.258 219.74 438.878 219.74C439.958 219.74 440.898 219.54 441.698 219.14C442.518 218.74 443.148 218.19 443.588 217.49C444.048 216.79 444.278 216.01 444.278 215.15C444.278 214.37 444.068 213.64 443.648 212.96C443.228 212.28 442.608 211.73 441.788 211.31C440.968 210.87 439.948 210.65 438.728 210.65ZM462.75 230.18C461.13 230.18 459.69 229.76 458.43 228.92C457.17 228.06 456.18 226.84 455.46 225.26C454.74 223.66 454.38 221.74 454.38 219.5C454.38 217.26 454.74 215.35 455.46 213.77C456.18 212.17 457.17 210.95 458.43 210.11C459.69 209.25 461.13 208.82 462.75 208.82C464.37 208.82 465.81 209.25 467.07 210.11C468.33 210.95 469.32 212.17 470.04 213.77C470.78 215.35 471.15 217.26 471.15 219.5C471.15 221.74 470.78 223.66 470.04 225.26C469.32 226.84 468.33 228.06 467.07 228.92C465.81 229.76 464.37 230.18 462.75 230.18ZM462.75 228.2C463.99 228.2 465.07 227.87 465.99 227.21C466.91 226.53 467.63 225.55 468.15 224.27C468.67 222.97 468.93 221.38 468.93 219.5C468.93 217.62 468.67 216.04 468.15 214.76C467.63 213.46 466.91 212.48 465.99 211.82C465.07 211.14 463.99 210.8 462.75 210.8C461.55 210.8 460.48 211.14 459.54 211.82C458.6 212.48 457.87 213.46 457.35 214.76C456.83 216.04 456.57 217.62 456.57 219.5C456.57 221.38 456.83 222.97 457.35 224.27C457.87 225.55 458.6 226.53 459.54 227.21C460.48 227.87 461.55 228.2 462.75 228.2ZM484.783 208.82C486.643 208.82 488.213 209.24 489.493 210.08C490.773 210.9 491.743 212.09 492.403 213.65C493.063 215.21 493.393 217.1 493.393 219.32C493.393 221.68 492.983 223.67 492.163 225.29C491.363 226.91 490.243 228.13 488.803 228.95C487.363 229.77 485.693 230.18 483.793 230.18C482.853 230.18 481.953 230.09 481.093 229.91C480.253 229.73 479.493 229.44 478.813 229.04L479.683 227.3C480.223 227.66 480.843 227.92 481.543 228.08C482.263 228.22 483.003 228.29 483.763 228.29C486.023 228.29 487.823 227.57 489.163 226.13C490.523 224.69 491.203 222.54 491.203 219.68C491.203 219.22 491.173 218.67 491.113 218.03C491.073 217.39 490.963 216.75 490.783 216.11L491.533 216.68C491.333 217.72 490.903 218.61 490.243 219.35C489.603 220.07 488.803 220.62 487.843 221C486.903 221.38 485.853 221.57 484.693 221.57C483.313 221.57 482.083 221.31 481.003 220.79C479.943 220.27 479.113 219.54 478.513 218.6C477.913 217.66 477.613 216.55 477.613 215.27C477.613 213.95 477.923 212.81 478.543 211.85C479.163 210.89 480.013 210.15 481.093 209.63C482.193 209.09 483.423 208.82 484.783 208.82ZM484.873 210.65C483.873 210.65 482.983 210.84 482.203 211.22C481.443 211.58 480.843 212.1 480.403 212.78C479.963 213.46 479.743 214.27 479.743 215.21C479.743 216.59 480.213 217.69 481.153 218.51C482.113 219.33 483.403 219.74 485.023 219.74C486.103 219.74 487.043 219.54 487.843 219.14C488.663 218.74 489.293 218.19 489.733 217.49C490.193 216.79 490.423 216.01 490.423 215.15C490.423 214.37 490.213 213.64 489.793 212.96C489.373 212.28 488.753 211.73 487.933 211.31C487.113 210.87 486.093 210.65 484.873 210.65Z" fill="white"/>
<path d="M427.443 287.496C428.149 284.286 430.993 282 434.279 282H497.824C500.38 282 502.28 284.364 501.731 286.859L492.357 329.467C491.651 332.677 488.807 334.963 485.521 334.963H421.976C419.42 334.963 417.52 332.599 418.069 330.104L427.443 287.496Z" fill="white"/>
<path d="M434.991 283.06H455.224C458.049 283.06 459.805 285.362 459.146 288.195L449.726 328.638C449.062 331.462 446.234 333.766 443.408 333.766H423.177C420.356 333.766 418.596 331.462 419.255 328.638L428.678 288.195C429.337 285.362 432.164 283.06 434.991 283.06Z" fill="#E21836"/>
<path d="M453.54 283.06H476.807C479.631 283.06 478.357 285.362 477.693 288.195L468.275 328.638C467.614 331.462 467.82 333.766 464.99 333.766H441.723C438.893 333.766 437.142 331.462 437.807 328.638L447.225 288.195C447.893 285.362 450.714 283.06 453.54 283.06Z" fill="#00447C"/>
<path d="M475.886 283.06H496.119C498.948 283.06 500.704 285.362 500.04 288.195L490.622 328.638C489.957 331.462 487.127 333.766 484.299 333.766H464.076C461.246 333.766 459.491 331.462 460.154 328.638L469.574 288.195C470.232 285.362 473.057 283.06 475.886 283.06Z" fill="#007B84"/>
<path d="M440.275 296.021C438.194 296.042 437.58 296.021 437.384 295.974C437.308 296.333 435.904 302.809 435.9 302.815C435.598 304.125 435.378 305.059 434.631 305.662C434.207 306.013 433.711 306.182 433.137 306.182C432.215 306.182 431.677 305.724 431.587 304.855L431.57 304.557C431.57 304.557 431.851 302.802 431.851 302.792C431.851 302.792 433.324 296.89 433.588 296.109C433.602 296.065 433.606 296.042 433.609 296.021C430.741 296.046 430.233 296.021 430.198 295.974C430.178 296.038 430.107 296.404 430.107 296.404L428.603 303.056L428.474 303.62L428.224 305.466C428.224 306.013 428.331 306.46 428.545 306.838C429.231 308.035 431.186 308.215 432.292 308.215C433.717 308.215 435.054 307.912 435.958 307.359C437.526 306.433 437.936 304.984 438.302 303.697L438.472 303.037C438.472 303.037 439.99 296.907 440.248 296.109C440.258 296.065 440.262 296.042 440.275 296.021ZM445.44 300.966C445.074 300.966 444.405 301.055 443.804 301.349C443.586 301.461 443.38 301.59 443.163 301.719L443.359 301.01L443.251 300.891C441.978 301.149 441.693 301.183 440.516 301.349L440.417 301.415C440.281 302.547 440.159 303.399 439.653 305.626C439.46 306.446 439.26 307.275 439.059 308.093L439.113 308.197C440.319 308.134 440.685 308.134 441.733 308.151L441.818 308.059C441.951 307.377 441.968 307.217 442.263 305.836C442.402 305.181 442.691 303.742 442.833 303.229C443.095 303.108 443.354 302.989 443.6 302.989C444.187 302.989 444.116 303.501 444.093 303.705C444.068 304.048 443.854 305.167 443.635 306.129L443.488 306.749C443.386 307.207 443.274 307.652 443.172 308.107L443.216 308.197C444.405 308.134 444.767 308.134 445.782 308.151L445.902 308.059C446.085 306.994 446.139 306.709 446.464 305.158L446.628 304.445C446.946 303.05 447.106 302.343 446.865 301.767C446.611 301.122 446 300.966 445.44 300.966ZM451.209 302.426C450.577 302.547 450.175 302.628 449.774 302.68C449.377 302.744 448.99 302.802 448.379 302.887L448.331 302.93L448.287 302.965C448.223 303.42 448.179 303.813 448.094 304.275C448.023 304.753 447.913 305.296 447.734 306.076C447.595 306.674 447.524 306.882 447.445 307.092C447.368 307.302 447.283 307.506 447.127 308.093L447.164 308.148L447.194 308.197C447.765 308.17 448.138 308.151 448.522 308.148C448.905 308.134 449.302 308.148 449.917 308.151L449.97 308.107L450.028 308.059C450.117 307.529 450.13 307.387 450.184 307.128C450.238 306.851 450.331 306.467 450.558 305.443C450.666 304.961 450.786 304.481 450.897 303.99C451.013 303.501 451.134 303.019 451.25 302.538L451.232 302.48L451.209 302.426ZM451.223 300.457C450.649 300.118 449.641 300.226 448.963 300.694C448.287 301.152 448.21 301.803 448.782 302.147C449.346 302.476 450.358 302.378 451.03 301.906C451.704 301.438 451.789 300.792 451.223 300.457ZM454.694 308.304C455.856 308.304 457.046 307.983 457.942 307.034C458.632 306.263 458.948 305.117 459.057 304.645C459.414 303.081 459.136 302.351 458.787 301.906C458.258 301.228 457.322 301.01 456.351 301.01C455.767 301.01 454.376 301.068 453.29 302.07C452.51 302.792 452.149 303.772 451.932 304.712C451.712 305.67 451.46 307.394 453.045 308.036C453.534 308.246 454.24 308.304 454.694 308.304ZM454.603 304.784C454.871 303.599 455.187 302.605 455.994 302.605C456.626 302.605 456.672 303.345 456.391 304.533C456.341 304.797 456.11 305.778 455.798 306.196C455.58 306.504 455.322 306.691 455.037 306.691C454.952 306.691 454.448 306.691 454.44 305.942C454.436 305.572 454.511 305.194 454.603 304.784ZM461.96 308.151L462.051 308.059C462.18 307.377 462.201 307.217 462.486 305.836C462.629 305.181 462.924 303.742 463.062 303.229C463.325 303.108 463.578 302.988 463.833 302.988C464.416 302.988 464.345 303.501 464.322 303.705C464.301 304.048 464.087 305.167 463.864 306.128L463.725 306.749C463.619 307.207 463.504 307.652 463.401 308.107L463.446 308.198C464.638 308.134 464.987 308.134 466.008 308.151L466.131 308.059C466.31 306.993 466.358 306.708 466.694 305.158L466.854 304.445C467.173 303.05 467.335 302.343 467.098 301.767C466.836 301.122 466.222 300.966 465.669 300.966C465.303 300.966 464.63 301.054 464.033 301.349C463.82 301.461 463.606 301.59 463.396 301.719L463.578 301.01L463.48 300.89C462.207 301.149 461.916 301.183 460.741 301.349L460.651 301.415C460.508 302.547 460.392 303.399 459.886 305.626C459.693 306.446 459.493 307.275 459.292 308.094L459.346 308.198C460.554 308.134 460.914 308.134 461.96 308.151ZM470.722 308.197C470.797 307.831 471.242 305.662 471.246 305.662C471.246 305.662 471.625 304.071 471.648 304.013C471.648 304.013 471.768 303.848 471.887 303.782H472.063C473.719 303.782 475.59 303.782 477.056 302.704C478.053 301.964 478.735 300.871 479.04 299.544C479.119 299.218 479.177 298.831 479.177 298.444C479.177 297.936 479.075 297.433 478.78 297.04C478.032 295.994 476.543 295.974 474.825 295.966C474.819 295.966 473.977 295.974 473.977 295.974C471.778 296.001 470.895 295.994 470.533 295.949C470.502 296.109 470.445 296.395 470.445 296.395C470.445 296.395 469.656 300.047 469.656 300.053C469.656 300.053 467.771 307.818 467.682 308.184C469.603 308.161 470.39 308.161 470.722 308.197ZM472.182 301.709C472.182 301.709 473.02 298.064 473.016 298.078L473.043 297.891L473.055 297.749L473.39 297.783C473.39 297.783 475.118 297.932 475.158 297.936C475.84 298.2 476.121 298.88 475.925 299.767C475.746 300.579 475.22 301.261 474.544 301.59C473.987 301.869 473.305 301.892 472.602 301.892H472.147L472.182 301.709ZM477.399 304.851C477.177 305.795 476.923 307.519 478.5 308.134C479.003 308.348 479.454 308.411 479.912 308.388C480.396 308.362 480.844 308.12 481.26 307.77C481.222 307.914 481.185 308.057 481.147 308.201L481.219 308.294C482.354 308.246 482.706 308.246 483.935 308.255L484.047 308.17C484.226 307.115 484.395 306.09 484.862 304.071C485.089 303.104 485.316 302.146 485.549 301.183L485.513 301.077C484.243 301.312 483.904 301.363 482.683 301.536L482.59 301.611C482.578 301.709 482.565 301.804 482.553 301.898C482.363 301.591 482.088 301.329 481.664 301.166C481.121 300.952 479.845 301.228 478.749 302.226C477.979 302.938 477.609 303.915 477.399 304.851ZM480.065 304.909C480.336 303.746 480.649 302.761 481.457 302.761C481.969 302.761 482.238 303.233 482.183 304.038C482.14 304.239 482.093 304.45 482.037 304.69C481.957 305.035 481.869 305.378 481.783 305.721C481.697 305.956 481.596 306.177 481.485 306.325C481.276 306.62 480.781 306.803 480.496 306.803C480.415 306.803 479.916 306.803 479.899 306.067C479.895 305.701 479.971 305.323 480.065 304.909ZM493.987 301.068L493.889 300.956C492.633 301.21 492.405 301.251 491.251 301.407L491.167 301.491C491.163 301.505 491.159 301.526 491.153 301.546L491.149 301.526C490.29 303.508 490.315 303.081 489.616 304.641C489.612 304.57 489.612 304.526 489.608 304.45L489.433 301.068L489.323 300.956C488.007 301.21 487.976 301.251 486.761 301.407L486.666 301.491C486.653 301.532 486.653 301.576 486.645 301.625L486.653 301.642C486.805 302.418 486.769 302.245 486.921 303.47C486.992 304.071 487.087 304.676 487.158 305.27C487.277 306.263 487.345 306.752 487.491 308.269C486.67 309.623 486.476 310.136 485.686 311.324L485.691 311.336L485.135 312.216C485.072 312.308 485.014 312.372 484.933 312.399C484.844 312.443 484.729 312.451 484.569 312.451H484.26L483.802 313.975L485.374 314.002C486.297 313.998 486.877 313.566 487.189 312.986L488.177 311.293H488.161L488.265 311.174C488.93 309.742 493.987 301.068 493.987 301.068ZM477.399 321.081H476.732L479.2 312.919H480.018L480.278 312.078L480.303 313.013C480.273 313.591 480.728 314.104 481.922 314.019H483.303L483.779 312.447H483.259C482.96 312.447 482.821 312.372 482.839 312.21L482.814 311.259H480.256V311.264C479.429 311.281 476.959 311.343 476.459 311.476C475.854 311.632 475.216 312.091 475.216 312.091L475.466 311.249H473.074L472.575 312.919L470.074 321.206H469.589L469.113 322.767H473.879L473.719 323.287H476.068L476.223 322.767H476.882L477.399 321.081ZM475.443 314.578C475.06 314.684 474.347 315.005 474.347 315.005L474.981 312.919H476.882L476.424 314.439C476.424 314.439 475.836 314.474 475.443 314.578ZM475.48 317.558C475.48 317.558 474.883 317.633 474.49 317.722C474.102 317.839 473.376 318.209 473.376 318.209L474.031 316.038H475.942L475.48 317.558ZM474.415 321.101H472.508L473.06 319.269H474.961L474.415 321.101ZM479.007 316.038H481.756L481.361 317.317H478.576L478.157 318.716H480.595L478.749 321.314C478.62 321.505 478.504 321.573 478.375 321.626C478.246 321.692 478.077 321.769 477.88 321.769H477.204L476.74 323.301H478.508C479.427 323.301 479.97 322.882 480.371 322.334L481.637 320.602L481.908 322.36C481.966 322.69 482.203 322.882 482.363 322.957C482.54 323.046 482.723 323.199 482.982 323.221C483.259 323.233 483.459 323.242 483.592 323.242H484.461L484.983 321.528H484.64C484.443 321.528 484.104 321.495 484.047 321.434C483.989 321.359 483.989 321.243 483.958 321.068L483.682 319.305H482.553L483.049 318.716H485.829L486.256 317.317H483.682L484.083 316.038H486.649L487.125 314.46H479.475L479.007 316.038ZM455.79 321.457L456.432 319.322H459.069L459.55 317.735H456.911L457.314 316.421H459.893L460.371 314.884H453.918L453.45 316.421H454.916L454.525 317.735H453.055L452.567 319.35H454.033L453.178 322.173C453.062 322.547 453.232 322.69 453.34 322.863C453.45 323.033 453.561 323.144 453.812 323.208C454.07 323.266 454.247 323.3 454.488 323.3H457.46L457.99 321.542L456.672 321.723C456.418 321.723 455.713 321.692 455.79 321.457ZM456.093 311.239L455.424 312.447C455.281 312.711 455.153 312.875 455.037 312.95C454.935 313.014 454.732 313.04 454.44 313.04H454.091L453.625 314.585H454.783C455.34 314.585 455.767 314.381 455.971 314.279C456.191 314.162 456.248 314.229 456.418 314.065L456.809 313.726H460.425L460.905 312.118H458.258L458.72 311.239H456.093ZM461.431 321.488C461.369 321.399 461.413 321.243 461.508 320.917L462.496 317.646H466.012C466.524 317.639 466.894 317.633 467.135 317.616C467.393 317.588 467.674 317.496 467.98 317.331C468.296 317.157 468.458 316.974 468.595 316.764C468.747 316.554 468.992 316.096 469.202 315.389L470.444 311.249L466.796 311.27C466.796 311.27 465.672 311.436 465.178 311.619C464.679 311.823 463.966 312.393 463.966 312.393L464.295 311.258H462.041L458.886 321.723C458.774 322.129 458.699 322.424 458.682 322.601C458.676 322.792 458.923 322.981 459.082 323.123C459.271 323.266 459.55 323.243 459.818 323.266C460.1 323.287 460.5 323.3 461.053 323.3H462.785L463.317 321.505L461.766 321.652C461.6 321.652 461.481 321.563 461.431 321.488ZM463.134 315.437H466.826L466.592 316.173C466.559 316.19 466.48 316.136 466.104 316.181H462.906L463.134 315.437ZM463.873 312.969H467.597L467.329 313.855C467.329 313.855 465.574 313.838 465.293 313.89C464.056 314.104 463.334 314.765 463.334 314.765L463.873 312.969ZM466.674 318.637C466.644 318.747 466.595 318.814 466.528 318.864C466.453 318.912 466.332 318.93 466.151 318.93H465.624L465.655 318.033H463.467L463.378 322.414C463.375 322.73 463.405 322.913 463.636 323.06C463.868 323.243 464.58 323.266 465.54 323.266H466.911L467.406 321.626L466.212 321.692L465.815 321.715C465.761 321.692 465.709 321.671 465.651 321.613C465.601 321.563 465.516 321.594 465.53 321.277L465.54 320.155L466.792 320.103C467.468 320.103 467.757 319.883 468.003 319.673C468.239 319.473 468.316 319.242 468.404 318.93L468.614 317.935H466.894L466.674 318.637Z" fill="#FEFEFE"/>
<path d="M61 116C61 106.059 69.0589 98 79 98H123C132.941 98 141 106.059 141 116V140C141 149.941 132.941 158 123 158H101H79C69.0589 158 61 149.941 61 140V116Z" fill="#FFF4CF"/>
<rect x="66.5" y="103.5" width="69" height="49" rx="9.5" stroke="black" stroke-opacity="0.5"/>
<rect x="72.5" y="118.5" width="19" height="19" rx="5.5" stroke="black" stroke-opacity="0.5"/>
<circle cx="82" cy="128" r="4.5" stroke="black" stroke-opacity="0.5"/>
<rect x="100.5" y="113.5" width="29" height="29" rx="6.5" stroke="black" stroke-opacity="0.5"/>
<path d="M454.595 60.6322H456.993C458.051 60.6322 458.615 59.9954 458.615 59.1463C458.615 58.2265 457.91 57.802 456.993 57.802H454.595V60.6322ZM460.026 52V53.7689H454.595V55.8916H457.275C459.25 55.8916 460.801 57.0944 460.801 59.1463C460.801 61.1982 459.32 62.3303 457.204 62.3303H452.408V52H460.026Z" fill="white"/>
<path d="M468.491 58.4388H471.241L469.831 54.3349L468.491 58.4388ZM471.1 52L474.697 62.4011H472.37L471.735 60.2784H467.926L467.221 62.4011H464.964L468.561 52H471.1Z" fill="white"/>
<path d="M481.112 55.9623H485.132V52H487.319V62.4011H485.132V57.7312H481.112V62.4011H478.996V52H481.112V55.9623Z" fill="white"/>
<path d="M494.094 56.2453L498.044 52H500.794L496.633 56.2453L501.077 62.4011H498.255L495.081 57.802L494.094 58.8633V62.4011H491.908V52H494.094V56.2453Z" fill="white"/>
<path fill-rule="evenodd" clip-rule="evenodd" d="M299.423 85.5383L299.775 85.6798L299.211 88.0147C297.659 88.7931 295.967 89.1468 293.921 89.1468C292.511 89.1468 291.171 88.9346 289.971 88.51C288.772 88.0855 287.644 87.4487 286.798 86.6704C285.881 85.8921 285.175 84.9015 284.682 83.7694C284.188 82.7081 283.906 81.4345 283.906 80.0901C283.906 78.392 284.188 76.9061 284.752 75.5617C285.316 74.2881 286.022 73.156 287.009 72.307C287.997 71.4579 289.125 70.8211 290.395 70.3966C291.664 69.972 293.075 69.7598 294.556 69.7598C295.473 69.7598 296.39 69.9013 297.448 70.1135C298.435 70.3258 299.282 70.6796 300.057 71.1041C299.987 71.5287 299.846 71.9532 299.705 72.5192C299.564 73.0853 299.493 73.5098 299.423 73.8636H299.07C298.576 73.0853 297.942 72.5192 297.095 72.0947C296.249 71.6702 295.473 71.3871 294.627 71.3871C293.569 71.3871 292.652 71.5994 291.805 72.0947C291.029 72.59 290.324 73.2268 289.83 74.0051C289.337 74.7834 288.914 75.7032 288.702 76.6231C288.42 77.6137 288.349 78.6042 288.349 79.5948C288.349 81.1514 288.561 82.4958 289.055 83.6279C289.548 84.8307 290.254 85.7506 291.241 86.3874C292.228 87.0242 293.357 87.3779 294.697 87.3779C295.543 87.3779 296.39 87.1657 297.236 86.8119C298.083 86.5996 298.858 86.1043 299.423 85.5383Z" fill="white"/>
<path fill-rule="evenodd" clip-rule="evenodd" d="M321.218 76.1282C320.866 74.9961 320.372 74.0055 319.596 73.0857C318.82 72.1658 317.833 71.3875 316.563 70.8215C315.294 70.2554 313.742 69.9724 311.908 69.9724C310.286 69.9724 308.805 70.2554 307.465 70.7507C306.125 71.1045 305.067 71.8121 304.15 72.6611C303.233 73.581 302.528 74.5715 302.034 75.7744C301.54 76.9772 301.328 78.1801 301.328 79.5244C301.328 81.5056 301.752 83.2745 302.598 84.6896C303.374 86.1047 304.573 87.2368 306.054 88.0151C307.535 88.7934 309.299 89.1472 311.273 89.1472C312.896 89.1472 314.306 88.8642 315.646 88.3689C316.986 87.8736 318.044 87.1661 319.032 86.2462C319.949 85.3264 320.654 84.3358 321.148 83.133C321.641 82.0009 321.853 80.7273 321.853 79.3829C321.783 78.3216 321.571 77.1895 321.218 76.1282ZM314.236 72.1658C314.941 72.5904 315.576 73.1564 315.999 73.864C316.493 74.5715 316.775 75.4206 316.986 76.2697C317.198 77.1187 317.339 78.0386 317.339 78.9584C317.339 80.515 317.127 81.9301 316.704 83.2037C316.281 84.5481 315.576 85.6094 314.729 86.3877C313.812 87.1661 312.684 87.5906 311.414 87.5906C310.145 87.5906 309.087 87.2368 308.241 86.5293C307.394 85.8217 306.759 84.9726 306.407 83.8405C305.984 82.7084 305.842 81.5764 305.842 80.3028C305.842 78.3216 306.054 76.6942 306.548 75.3498C307.042 74.0055 307.676 73.0857 308.593 72.3781C309.51 71.7413 310.568 71.3875 311.767 71.3875C312.684 71.529 313.53 71.7413 314.236 72.1658Z" fill="white"/>
<path fill-rule="evenodd" clip-rule="evenodd" d="M329.54 70.3259C329.54 70.3259 329.751 70.3259 330.033 70.3967C330.315 70.4674 330.527 70.4674 330.668 70.4674C330.739 70.4674 330.809 70.4674 330.95 70.4674C331.021 70.4674 331.162 70.4674 331.232 70.3967C331.373 70.3967 331.444 70.3967 331.514 70.3259C331.585 70.3259 331.726 70.3259 331.797 70.3259C332.361 71.9533 332.925 73.4392 333.419 74.642C333.912 75.9156 334.477 77.4015 335.182 79.2411C335.887 81.0808 336.452 82.4959 336.875 83.4865C337.298 84.5478 338.003 86.246 338.991 88.7224C338.638 88.7224 338.356 88.6517 338.074 88.6517C337.792 88.6517 337.58 88.5809 337.298 88.5809C337.016 88.5809 336.804 88.5809 336.663 88.5809C336.522 88.5809 336.24 88.5809 335.958 88.5809C335.676 88.5809 335.394 88.6517 335.182 88.6517C334.9 88.6517 334.618 88.7224 334.265 88.7224C333.983 87.7318 333.63 86.6705 333.278 85.5384C332.925 84.4063 332.572 83.4157 332.22 82.6374C331.938 81.7884 331.444 80.6563 330.95 79.1704C330.386 77.6845 329.892 76.4817 329.54 75.4203C327.353 80.727 325.731 85.1139 324.602 88.7224C324.179 88.6517 323.756 88.6517 323.333 88.6517C322.91 88.6517 322.486 88.6517 322.063 88.7224C322.839 86.9535 323.544 85.3261 324.179 83.8403C324.814 82.3544 325.378 80.8685 326.013 79.4534C326.577 78.0383 327.212 76.5524 327.776 74.9958C328.411 73.5099 328.975 71.9533 329.54 70.3259Z" fill="white"/>
<path fill-rule="evenodd" clip-rule="evenodd" d="M341.954 88.8633V70.4668C342.237 70.4668 342.519 70.5376 342.73 70.5376C342.942 70.5376 343.153 70.6083 343.365 70.6083C343.577 70.6083 343.788 70.6083 343.929 70.6083C344.07 70.6083 344.282 70.6083 344.494 70.6083C344.705 70.6083 344.917 70.5376 345.199 70.5376C345.41 70.4668 345.693 70.4668 345.975 70.4668V83.1321C346.751 82.283 347.667 81.2924 348.584 80.1603C349.501 79.0282 350.418 77.9669 351.265 76.9056C352.111 75.8442 352.957 74.7121 353.874 73.58C354.721 72.3772 355.496 71.3866 356.202 70.4668C356.413 70.4668 356.625 70.4668 357.048 70.4668C357.612 70.4668 357.965 70.4668 358.247 70.4668V88.934C358.036 88.934 357.683 88.934 357.26 88.8633C356.837 88.8633 356.484 88.7925 356.202 88.7925C355.99 88.7925 355.638 88.7925 355.214 88.8633C354.791 88.8633 354.438 88.934 354.227 88.934V76.198C353.451 77.1178 352.675 78.0377 351.829 78.9575C350.982 79.9481 350.136 81.0094 349.078 82.283C348.02 83.5566 347.103 84.7595 346.257 85.8208C345.41 86.9529 344.635 87.9435 344 88.8633C343.788 88.8633 343.506 88.7925 343.153 88.7925C342.66 88.8633 342.237 88.8633 341.954 88.8633Z" fill="white"/>
<path fill-rule="evenodd" clip-rule="evenodd" d="M361.421 88.2264C361.421 88.7925 361.351 89.2878 361.28 89.6416H361.703C362.056 89.217 362.55 89.0048 363.326 88.8632C364.102 88.7217 365.089 88.651 366.288 88.651H374.187C375.245 88.651 376.162 88.7217 376.938 88.8632C377.714 88.934 378.278 89.217 378.56 89.6416H378.984C378.843 89.1463 378.843 88.651 378.843 88.2264C378.843 88.1557 378.913 87.6604 378.984 86.8113H377.714C375.245 80.7263 373.13 75.2074 371.366 70.396C371.225 70.396 371.014 70.396 370.802 70.4668C370.59 70.4668 370.379 70.4668 370.238 70.4668C370.097 70.4668 369.885 70.4668 369.673 70.4668C369.462 70.4668 369.25 70.396 369.109 70.396C368.686 71.5281 368.263 72.8017 367.699 74.2168C367.134 75.6319 366.57 77.047 365.935 78.5329C365.301 80.0895 364.807 81.3631 364.313 82.4245C363.89 83.4858 363.255 84.9717 362.479 86.8113H361.351C361.351 87.3774 361.421 87.8019 361.421 88.2264ZM366.5 86.8113C365.653 86.7406 365.089 86.7406 364.666 86.7406C365.512 84.1934 366.993 80.3726 368.968 75.4197C369.885 77.9669 370.731 80.0895 371.366 81.7877C372.001 83.4858 372.565 85.1839 373.059 86.7406C372.636 86.7406 371.93 86.7406 371.084 86.8113C370.238 86.8113 369.391 86.8113 368.686 86.8113C368.051 86.8821 367.346 86.8821 366.5 86.8113Z" fill="white"/>
<path fill-rule="evenodd" clip-rule="evenodd" d="M392.809 88.7928C393.02 88.7928 393.444 88.7928 393.937 88.7221C394.431 88.7221 394.784 88.6513 395.066 88.6513C395.348 88.6513 395.701 88.6513 396.194 88.7221C396.688 88.7221 397.111 88.7928 397.393 88.7928L389.917 70.1841C389.564 70.2548 389.282 70.2548 388.93 70.2548C388.577 70.2548 388.295 70.2548 387.942 70.1841L380.325 88.7928C380.466 88.7928 380.677 88.7928 380.96 88.7928C381.242 88.7928 381.453 88.7928 381.594 88.7928C381.735 88.7928 381.947 88.7928 382.229 88.7928C382.511 88.7928 382.723 88.7928 382.864 88.7928C383.005 88.2975 383.146 87.8023 383.358 87.1655C383.569 86.5994 383.781 85.8919 384.063 85.1135C384.345 84.3352 384.557 83.6984 384.698 83.2031H390.975C391.398 84.3352 392.033 86.1749 392.809 88.7928ZM387.942 75.2785L390.34 81.5758H385.474L387.942 75.2785Z" fill="white"/>
<path fill-rule="evenodd" clip-rule="evenodd" d="M407.544 80.3018C408.743 79.9481 409.66 79.382 410.365 78.5329C411.07 77.6839 411.423 76.481 411.423 74.9952C411.423 73.5093 410.929 72.3064 409.942 71.5989C408.955 70.8206 407.544 70.4668 405.71 70.4668H399.151V88.8633C399.362 88.8633 399.715 88.8633 400.138 88.7925C400.561 88.7925 400.914 88.7218 401.126 88.7218C401.337 88.7218 401.69 88.7218 402.113 88.7925C402.536 88.7925 402.889 88.8633 403.1 88.8633V80.8679C404.793 80.7971 406.274 80.5849 407.544 80.3018ZM404.723 71.8819C405.428 71.8819 406.063 72.2357 406.486 72.8725C406.98 73.5093 407.191 74.3584 407.191 75.4197C407.191 76.3395 406.98 77.1178 406.627 77.7546C406.204 78.3914 405.64 78.816 404.793 79.099C404.441 79.1697 403.806 79.2405 403.03 79.3113V71.8819H404.723V71.8819Z" fill="white"/>
<path fill-rule="evenodd" clip-rule="evenodd" d="M413.966 88.7925V70.396C414.248 70.396 414.53 70.4668 414.741 70.4668C414.953 70.4668 415.165 70.5375 415.376 70.5375C415.588 70.5375 415.799 70.5375 415.94 70.5375C416.082 70.5375 416.293 70.5375 416.505 70.5375C416.716 70.5375 416.928 70.4668 417.139 70.4668C417.351 70.396 417.633 70.396 417.915 70.396V77.6838C420.172 77.7546 421.512 77.8253 422.006 77.8253C422.429 77.8253 423.769 77.7546 426.097 77.6838V70.396C426.379 70.396 426.661 70.4668 426.873 70.4668C427.084 70.4668 427.296 70.5375 427.508 70.5375C427.719 70.5375 427.931 70.5375 428.072 70.5375C428.213 70.5375 428.424 70.5375 428.636 70.5375C428.848 70.5375 429.059 70.4668 429.271 70.4668C429.482 70.4668 429.765 70.396 430.047 70.396V88.7925C429.835 88.7925 429.482 88.7925 429.059 88.7217C428.636 88.7217 428.283 88.651 428.072 88.651C427.86 88.651 427.508 88.651 427.084 88.7217C426.661 88.7217 426.309 88.7925 426.097 88.7925V79.8065C424.263 79.7357 422.853 79.7358 422.006 79.7358C421.089 79.7358 419.679 79.7357 417.915 79.8065V88.7925C417.704 88.7925 417.351 88.7925 416.928 88.7217C416.505 88.7217 416.152 88.651 415.94 88.651C415.729 88.651 415.376 88.651 414.953 88.7217C414.53 88.7925 414.177 88.7925 413.966 88.7925Z" fill="white"/>
<path fill-rule="evenodd" clip-rule="evenodd" d="M453.398 76.1282C453.046 74.9961 452.481 74.0055 451.705 73.0857C450.93 72.1658 449.942 71.3875 448.673 70.8215C447.403 70.2554 445.851 69.9724 444.018 69.9724C442.395 69.9724 440.914 70.2554 439.645 70.7507C438.305 71.246 437.176 71.9536 436.33 72.8026C435.413 73.7225 434.707 74.713 434.284 75.9159C433.791 77.1187 433.579 78.3216 433.579 79.6659C433.579 81.6471 434.002 83.416 434.849 84.8311C435.695 86.2462 436.823 87.3783 438.305 88.1566C439.786 88.9349 441.549 89.2887 443.524 89.2887C445.146 89.2887 446.557 89.0057 447.897 88.5104C449.237 88.0151 450.365 87.3076 451.282 86.3877C452.199 85.4679 452.904 84.4773 453.398 83.2745C453.892 82.1424 454.104 80.8688 454.104 79.5244C453.892 78.3216 453.751 77.1895 453.398 76.1282ZM446.416 72.1658C447.121 72.5904 447.756 73.1564 448.179 73.864C448.673 74.5715 448.955 75.4206 449.166 76.2697C449.378 77.1187 449.519 78.0386 449.519 78.9584C449.519 80.515 449.307 81.9301 448.884 83.2037C448.461 84.5481 447.756 85.6094 446.839 86.3877C445.922 87.1661 444.864 87.5906 443.524 87.5906C442.254 87.5906 441.196 87.2368 440.35 86.5293C439.504 85.8217 438.869 84.9726 438.516 83.8405C438.093 82.7084 437.952 81.5764 437.952 80.3027C437.952 78.3216 438.163 76.6942 438.657 75.3498C439.151 74.0055 439.786 73.0857 440.703 72.3781C441.62 71.7413 442.677 71.3875 443.877 71.3875C444.793 71.529 445.64 71.7413 446.416 72.1658Z" fill="white"/>
<path fill-rule="evenodd" clip-rule="evenodd" d="M471.38 85.3257L471.733 85.4672L471.169 87.8021C469.688 88.5805 467.924 88.9342 465.879 88.9342C463.269 88.9342 460.66 88.2267 458.685 86.4578C457.768 85.6795 457.063 84.6889 456.569 83.5568C456.075 82.4247 455.793 81.2219 455.793 79.8775C455.793 78.1794 456.075 76.6935 456.639 75.3491C457.204 74.0755 457.979 72.9434 458.896 72.1651C459.884 71.3161 461.012 70.6793 462.282 70.2547C463.551 69.8302 464.962 69.6179 466.443 69.6179C467.36 69.6179 468.277 69.7594 469.335 69.9717C470.322 70.184 471.169 70.5377 471.945 70.9623C471.874 71.3868 471.733 71.8113 471.662 72.3774C471.521 72.9434 471.451 73.368 471.38 73.7218H471.028C470.534 72.9434 469.829 72.3774 469.053 71.9529C468.206 71.5283 467.431 71.3161 466.584 71.3161C465.526 71.3161 464.539 71.5283 463.763 72.0236C462.987 72.5189 462.352 73.1557 461.788 73.934C461.294 74.7123 460.871 75.6322 460.66 76.552C460.448 77.5426 460.307 78.5331 460.307 79.5237C460.307 81.0096 460.519 82.4247 461.083 83.5568C461.577 84.7596 462.282 85.6795 463.269 86.3163C464.257 86.9531 465.385 87.3069 466.725 87.3069C467.501 87.3069 468.347 87.0946 469.264 86.7408C470.04 86.387 470.746 85.8917 471.38 85.3257Z" fill="white"/>
<path fill-rule="evenodd" clip-rule="evenodd" d="M483.23 72.3772V88.934C483.019 88.934 482.666 88.934 482.243 88.8633C481.82 88.8633 481.467 88.8633 481.255 88.8633C481.044 88.8633 480.691 88.8633 480.268 88.8633C479.774 88.8633 479.492 88.934 479.28 88.934V72.3772C477.799 72.3772 476.107 72.5187 474.273 72.731C474.343 72.0942 474.414 71.7404 474.414 71.5989C474.414 71.4574 474.343 71.1036 474.273 70.4668H488.026C488.026 70.6083 487.956 70.7498 487.956 70.8913C487.956 71.0328 487.885 71.1036 487.885 71.2451C487.885 71.3866 487.885 71.4574 487.885 71.5989C487.885 71.6696 487.885 71.8112 487.885 71.9527C487.885 72.0942 487.956 72.2357 487.956 72.3064C487.956 72.448 488.026 72.5895 488.026 72.731C485.91 72.448 484.288 72.3772 483.23 72.3772Z" fill="white"/>
<path fill-rule="evenodd" clip-rule="evenodd" d="M493.666 70.3967C493.243 70.3967 492.89 70.4674 492.608 70.4674C492.326 70.4674 491.973 70.4674 491.55 70.3967C491.127 70.3967 490.845 70.3259 490.633 70.3259V88.7224H495.994C498.039 88.7224 499.661 88.2979 501.001 87.4488C502.271 86.5997 502.906 85.0431 502.906 82.8497C502.906 81.3638 502.412 80.2317 501.425 79.4534C500.437 78.6751 499.026 78.3213 497.122 78.3213H494.513V70.3259C494.371 70.3967 494.089 70.3967 493.666 70.3967ZM496.276 79.878C496.981 79.878 497.545 80.2317 498.039 80.8685C498.533 81.5761 498.744 82.3544 498.744 83.4865C498.744 84.4063 498.533 85.1846 498.11 85.8214C497.757 86.4582 497.122 86.9535 496.276 87.1658C495.853 87.3073 495.218 87.3781 494.513 87.3781V79.878H496.276Z" fill="white"/>
<path fill-rule="evenodd" clip-rule="evenodd" d="M262.819 65.7266C263.172 65.7266 263.525 65.5851 263.948 65.4436L276.432 60.703C274.739 58.0142 270.084 52.4953 262.96 52.0708C262.396 52 261.832 52 261.338 52C254.426 52 249.136 55.1133 245.751 60.6322C243.494 64.2407 243 67.92 243 70.6795C243 72.5192 243.212 73.9343 243.353 74.6418C243.564 76.2692 244.411 77.8966 244.834 78.1796C245.116 78.3919 245.61 78.5334 246.033 78.5334C246.315 78.5334 246.668 78.4626 246.95 78.3919L259.293 73.722C258.94 73.0852 258.164 71.7408 256.754 68.6984C254.567 63.887 253.721 60.986 253.509 58.8633C253.58 58.5803 253.58 58.4388 253.58 58.2973C253.58 57.6605 253.932 57.0237 254.567 57.0237C255.413 57.0944 256.119 57.802 256.965 58.651C258.517 60.2077 260.774 64.0285 261.55 65.0898C261.973 65.5851 262.326 65.7266 262.819 65.7266Z" fill="white"/>
<path fill-rule="evenodd" clip-rule="evenodd" d="M260.282 75.9157C259.929 75.9157 259.506 75.9864 259.154 76.1987L246.74 80.9393C248.433 83.628 253.088 89.0762 260.212 89.5715C260.776 89.6423 261.27 89.6423 261.834 89.6423C268.675 89.6423 274.036 86.529 277.421 81.0101C279.608 77.4015 280.172 73.7222 280.172 70.892C280.172 69.0524 279.96 67.708 279.819 67.0005C279.608 65.3731 278.761 63.7457 278.268 63.4627C277.985 63.2504 277.492 63.1089 276.998 63.1089C276.716 63.1089 276.363 63.1796 276.081 63.2504L263.738 67.9203C264.091 68.5571 264.867 69.9014 266.277 72.9439C268.464 77.7553 269.31 80.5856 269.522 82.779C269.522 82.9205 269.522 83.1328 269.522 83.2743C269.522 83.9111 269.169 84.5479 268.605 84.5479C267.758 84.4771 267.053 83.7696 266.207 82.9205C264.655 81.3639 262.398 77.5431 261.622 76.4817C261.199 76.0572 260.776 75.9157 260.282 75.9157Z" fill="white"/>
</svg>
