<svg width="538" height="380" xmlns="http://www.w3.org/2000/svg">

 <g>
  <title>background</title>
  <rect fill="none" id="canvas_background" height="602" width="802" y="-1" x="-1"/>
 </g>
 <g>
  <title>Layer 1</title>
  <path id="svg_1" fill="#DB0334" d="m0,25c0,-13.8071 11.1929,-25 25,-25l488,0c13.807,0 25,11.1929 25,25l0,330c0,13.807 -11.193,25 -25,25l-488,0c-13.8071,0 -25,-11.193 -25,-25l0,-330z"/>
  <path id="svg_2" fill="white" d="m44.032,317l-7.328,-22.4l5.376,0l6.368,19.84l-2.688,0l6.656,-19.84l4.8,0l6.4,19.84l-2.592,0l6.528,-19.84l4.96,0l-7.328,22.4l-5.568,0l-5.664,-17.408l1.472,0l-5.824,17.408l-5.568,0zm38.2848,0.256c-1.9627,0 -3.6907,-0.384 -5.184,-1.152c-1.472,-0.768 -2.6134,-1.813 -3.424,-3.136c-0.8107,-1.344 -1.216,-2.869 -1.216,-4.576c0,-1.728 0.3946,-3.253 1.184,-4.576c0.8106,-1.344 1.9093,-2.389 3.296,-3.136c1.3866,-0.768 2.9546,-1.152 4.704,-1.152c1.6853,0 3.2,0.363 4.544,1.088c1.3653,0.704 2.4426,1.728 3.232,3.072c0.7893,1.323 1.184,2.912 1.184,4.768c0,0.192 -0.0107,0.416 -0.032,0.672c-0.0214,0.235 -0.0427,0.459 -0.064,0.672l-13.984,0l0,-2.912l11.3599,0l-1.9199,0.864c0,-0.896 -0.1814,-1.675 -0.544,-2.336c-0.3627,-0.661 -0.864,-1.173 -1.504,-1.536c-0.64,-0.384 -1.3867,-0.576 -2.24,-0.576c-0.8534,0 -1.6107,0.192 -2.272,0.576c-0.64,0.363 -1.1414,0.885 -1.504,1.568c-0.3627,0.661 -0.544,1.451 -0.544,2.368l0,0.768c0,0.939 0.2026,1.771 0.608,2.496c0.4266,0.704 1.0133,1.248 1.76,1.632c0.768,0.363 1.664,0.544 2.688,0.544c0.9173,0 1.7173,-0.139 2.4,-0.416c0.704,-0.277 1.344,-0.693 1.92,-1.248l2.656,2.88c-0.7894,0.896 -1.7814,1.589 -2.976,2.08c-1.1947,0.469 -2.5707,0.704 -4.128,0.704zm11.6435,-0.256l0,-23.744l4.992,0l0,23.744l-4.992,0zm17.9447,0.256c-1.856,0 -3.509,-0.373 -4.96,-1.12c-1.45,-0.768 -2.592,-1.824 -3.424,-3.168c-0.81,-1.344 -1.216,-2.869 -1.216,-4.576c0,-1.728 0.406,-3.253 1.216,-4.576c0.832,-1.344 1.974,-2.389 3.424,-3.136c1.451,-0.768 3.104,-1.152 4.96,-1.152c1.814,0 3.392,0.384 4.736,1.152c1.344,0.747 2.336,1.824 2.976,3.232l-3.872,2.08c-0.448,-0.811 -1.013,-1.408 -1.696,-1.792c-0.661,-0.384 -1.386,-0.576 -2.176,-0.576c-0.853,0 -1.621,0.192 -2.304,0.576c-0.682,0.384 -1.226,0.928 -1.632,1.632c-0.384,0.704 -0.576,1.557 -0.576,2.56c0,1.003 0.192,1.856 0.576,2.56c0.406,0.704 0.95,1.248 1.632,1.632c0.683,0.384 1.451,0.576 2.304,0.576c0.79,0 1.515,-0.181 2.176,-0.544c0.683,-0.384 1.248,-0.992 1.696,-1.824l3.872,2.112c-0.64,1.387 -1.632,2.464 -2.976,3.232c-1.344,0.747 -2.922,1.12 -4.736,1.12zm18.56,0c-1.835,0 -3.467,-0.384 -4.896,-1.152c-1.408,-0.768 -2.528,-1.813 -3.36,-3.136c-0.811,-1.344 -1.216,-2.869 -1.216,-4.576c0,-1.728 0.405,-3.253 1.216,-4.576c0.832,-1.344 1.952,-2.389 3.36,-3.136c1.429,-0.768 3.061,-1.152 4.896,-1.152c1.813,0 3.434,0.384 4.864,1.152c1.429,0.747 2.549,1.781 3.36,3.104c0.81,1.323 1.216,2.859 1.216,4.608c0,1.707 -0.406,3.232 -1.216,4.576c-0.811,1.323 -1.931,2.368 -3.36,3.136c-1.43,0.768 -3.051,1.152 -4.864,1.152zm0,-4.096c0.832,0 1.578,-0.192 2.24,-0.576c0.661,-0.384 1.184,-0.928 1.568,-1.632c0.384,-0.725 0.576,-1.579 0.576,-2.56c0,-1.003 -0.192,-1.856 -0.576,-2.56c-0.384,-0.704 -0.907,-1.248 -1.568,-1.632c-0.662,-0.384 -1.408,-0.576 -2.24,-0.576c-0.832,0 -1.579,0.192 -2.24,0.576c-0.662,0.384 -1.195,0.928 -1.6,1.632c-0.384,0.704 -0.576,1.557 -0.576,2.56c0,0.981 0.192,1.835 0.576,2.56c0.405,0.704 0.938,1.248 1.6,1.632c0.661,0.384 1.408,0.576 2.24,0.576zm34.825,-13.632c1.365,0 2.57,0.277 3.616,0.832c1.066,0.533 1.898,1.365 2.496,2.496c0.618,1.109 0.928,2.539 0.928,4.288l0,9.856l-4.992,0l0,-9.088c0,-1.387 -0.288,-2.411 -0.864,-3.072c-0.576,-0.661 -1.387,-0.992 -2.432,-0.992c-0.726,0 -1.376,0.171 -1.952,0.512c-0.576,0.32 -1.024,0.811 -1.344,1.472c-0.32,0.661 -0.48,1.504 -0.48,2.528l0,8.64l-4.992,0l0,-9.088c0,-1.387 -0.288,-2.411 -0.864,-3.072c-0.555,-0.661 -1.355,-0.992 -2.4,-0.992c-0.726,0 -1.376,0.171 -1.952,0.512c-0.576,0.32 -1.024,0.811 -1.344,1.472c-0.32,0.661 -0.48,1.504 -0.48,2.528l0,8.64l-4.992,0l0,-17.216l4.768,0l0,4.704l-0.896,-1.376c0.597,-1.173 1.44,-2.059 2.528,-2.656c1.109,-0.619 2.368,-0.928 3.776,-0.928c1.578,0 2.954,0.405 4.128,1.216c1.194,0.789 1.984,2.005 2.368,3.648l-1.76,-0.48c0.576,-1.344 1.493,-2.411 2.752,-3.2c1.28,-0.789 2.741,-1.184 4.384,-1.184zm20.183,17.728c-1.963,0 -3.691,-0.384 -5.184,-1.152c-1.472,-0.768 -2.613,-1.813 -3.424,-3.136c-0.811,-1.344 -1.216,-2.869 -1.216,-4.576c0,-1.728 0.395,-3.253 1.184,-4.576c0.811,-1.344 1.909,-2.389 3.296,-3.136c1.387,-0.768 2.955,-1.152 4.704,-1.152c1.685,0 3.2,0.363 4.544,1.088c1.365,0.704 2.443,1.728 3.232,3.072c0.789,1.323 1.184,2.912 1.184,4.768c0,0.192 -0.011,0.416 -0.032,0.672c-0.021,0.235 -0.043,0.459 -0.064,0.672l-13.984,0l0,-2.912l11.36,0l-1.92,0.864c0,-0.896 -0.181,-1.675 -0.544,-2.336c-0.363,-0.661 -0.864,-1.173 -1.504,-1.536c-0.64,-0.384 -1.387,-0.576 -2.24,-0.576c-0.853,0 -1.611,0.192 -2.272,0.576c-0.64,0.363 -1.141,0.885 -1.504,1.568c-0.363,0.661 -0.544,1.451 -0.544,2.368l0,0.768c0,0.939 0.203,1.771 0.608,2.496c0.427,0.704 1.013,1.248 1.76,1.632c0.768,0.363 1.664,0.544 2.688,0.544c0.917,0 1.717,-0.139 2.4,-0.416c0.704,-0.277 1.344,-0.693 1.92,-1.248l2.656,2.88c-0.789,0.896 -1.781,1.589 -2.976,2.08c-1.195,0.469 -2.571,0.704 -4.128,0.704zm31.778,0.128c-1.728,0 -3.339,-0.277 -4.832,-0.832c-1.472,-0.576 -2.752,-1.387 -3.84,-2.432c-1.088,-1.045 -1.941,-2.272 -2.56,-3.68c-0.597,-1.408 -0.896,-2.955 -0.896,-4.64c0,-1.685 0.299,-3.232 0.896,-4.64c0.619,-1.408 1.472,-2.635 2.56,-3.68c1.109,-1.045 2.4,-1.845 3.872,-2.4c1.472,-0.576 3.083,-0.864 4.832,-0.864c1.941,0 3.691,0.341 5.248,1.024c1.579,0.661 2.901,1.643 3.968,2.944l-3.328,3.072c-0.768,-0.875 -1.621,-1.525 -2.56,-1.952c-0.939,-0.448 -1.963,-0.672 -3.072,-0.672c-1.045,0 -2.005,0.171 -2.88,0.512c-0.875,0.341 -1.632,0.832 -2.272,1.472c-0.64,0.64 -1.141,1.397 -1.504,2.272c-0.341,0.875 -0.512,1.845 -0.512,2.912c0,1.067 0.171,2.037 0.512,2.912c0.363,0.875 0.864,1.632 1.504,2.272c0.64,0.64 1.397,1.131 2.272,1.472c0.875,0.341 1.835,0.512 2.88,0.512c1.109,0 2.133,-0.213 3.072,-0.64c0.939,-0.448 1.792,-1.12 2.56,-2.016l3.328,3.072c-1.067,1.301 -2.389,2.293 -3.968,2.976c-1.557,0.683 -3.317,1.024 -5.28,1.024zm22.863,-0.384l0,-3.36l-0.32,-0.736l0,-6.016c0,-1.067 -0.331,-1.899 -0.992,-2.496c-0.64,-0.597 -1.632,-0.896 -2.976,-0.896c-0.917,0 -1.824,0.149 -2.72,0.448c-0.875,0.277 -1.621,0.661 -2.24,1.152l-1.792,-3.488c0.939,-0.661 2.069,-1.173 3.392,-1.536c1.323,-0.363 2.667,-0.544 4.032,-0.544c2.624,0 4.661,0.619 6.112,1.856c1.451,1.237 2.176,3.168 2.176,5.792l0,9.824l-4.672,0zm-5.248,0.256c-1.344,0 -2.496,-0.224 -3.456,-0.672c-0.96,-0.469 -1.696,-1.099 -2.208,-1.888c-0.512,-0.789 -0.768,-1.675 -0.768,-2.656c0,-1.024 0.245,-1.92 0.736,-2.688c0.512,-0.768 1.312,-1.365 2.4,-1.792c1.088,-0.448 2.507,-0.672 4.256,-0.672l4.576,0l0,2.912l-4.032,0c-1.173,0 -1.984,0.192 -2.432,0.576c-0.427,0.384 -0.64,0.864 -0.64,1.44c0,0.64 0.245,1.152 0.736,1.536c0.512,0.363 1.205,0.544 2.08,0.544c0.832,0 1.579,-0.192 2.24,-0.576c0.661,-0.405 1.141,-0.992 1.44,-1.76l0.768,2.304c-0.363,1.109 -1.024,1.952 -1.984,2.528c-0.96,0.576 -2.197,0.864 -3.712,0.864zm14.438,-0.256l0,-17.216l4.768,0l0,4.864l-0.672,-1.408c0.512,-1.216 1.333,-2.133 2.464,-2.752c1.131,-0.64 2.507,-0.96 4.128,-0.96l0,4.608c-0.213,-0.021 -0.405,-0.032 -0.576,-0.032c-0.171,-0.021 -0.352,-0.032 -0.544,-0.032c-1.365,0 -2.475,0.395 -3.328,1.184c-0.832,0.768 -1.248,1.973 -1.248,3.616l0,8.128l-4.992,0zm20.923,0.256c-1.621,0 -3.082,-0.363 -4.384,-1.088c-1.301,-0.747 -2.336,-1.781 -3.104,-3.104c-0.746,-1.323 -1.12,-2.88 -1.12,-4.672c0,-1.813 0.374,-3.381 1.12,-4.704c0.768,-1.323 1.803,-2.347 3.104,-3.072c1.302,-0.725 2.763,-1.088 4.384,-1.088c1.451,0 2.72,0.32 3.808,0.96c1.088,0.64 1.931,1.611 2.528,2.912c0.598,1.301 0.896,2.965 0.896,4.992c0,2.005 -0.288,3.669 -0.864,4.992c-0.576,1.301 -1.408,2.272 -2.496,2.912c-1.066,0.64 -2.357,0.96 -3.872,0.96zm0.864,-4.096c0.811,0 1.547,-0.192 2.208,-0.576c0.662,-0.384 1.184,-0.928 1.568,-1.632c0.406,-0.725 0.608,-1.579 0.608,-2.56c0,-1.003 -0.202,-1.856 -0.608,-2.56c-0.384,-0.704 -0.906,-1.248 -1.568,-1.632c-0.661,-0.384 -1.397,-0.576 -2.208,-0.576c-0.832,0 -1.578,0.192 -2.24,0.576c-0.661,0.384 -1.194,0.928 -1.6,1.632c-0.384,0.704 -0.576,1.557 -0.576,2.56c0,0.981 0.192,1.835 0.576,2.56c0.406,0.704 0.939,1.248 1.6,1.632c0.662,0.384 1.408,0.576 2.24,0.576zm4.512,3.84l0,-3.52l0.096,-5.12l-0.32,-5.088l0,-10.016l4.992,0l0,23.744l-4.768,0zm28.755,0.384c-3.179,0 -5.664,-0.885 -7.456,-2.656c-1.792,-1.771 -2.688,-4.299 -2.688,-7.584l0,-12.544l5.184,0l0,12.352c0,2.133 0.437,3.669 1.312,4.608c0.875,0.939 2.101,1.408 3.68,1.408c1.579,0 2.805,-0.469 3.68,-1.408c0.875,-0.939 1.312,-2.475 1.312,-4.608l0,-12.352l5.12,0l0,12.544c0,3.285 -0.896,5.813 -2.688,7.584c-1.792,1.771 -4.277,2.656 -7.456,2.656zm15.267,-0.384l0,-22.4l9.696,0c2.005,0 3.733,0.331 5.184,0.992c1.45,0.64 2.57,1.568 3.36,2.784c0.789,1.216 1.184,2.667 1.184,4.352c0,1.664 -0.395,3.104 -1.184,4.32c-0.79,1.216 -1.91,2.155 -3.36,2.816c-1.451,0.64 -3.179,0.96 -5.184,0.96l-6.816,0l2.304,-2.336l0,8.512l-5.184,0zm5.184,-7.936l-2.304,-2.464l6.528,0c1.6,0 2.794,-0.341 3.584,-1.024c0.789,-0.683 1.184,-1.632 1.184,-2.848c0,-1.237 -0.395,-2.197 -1.184,-2.88c-0.79,-0.683 -1.984,-1.024 -3.584,-1.024l-6.528,0l2.304,-2.464l0,12.704zm17.941,7.936l0,-22.4l5.184,0l0,22.4l-5.184,0z"/>
  <path id="svg_3" fill="white" d="m43.6213,224.48l0,-1.56l11.13,-13.92l2.4,0l-11.04,13.92l-1.17,-0.36l16.89,0l0,1.92l-18.21,0zm11.85,5.52l0,-5.52l0.06,-1.92l0,-4.86l2.1,0l0,12.3l-2.16,0zm18.1745,0.18c-1.52,0 -2.96,-0.24 -4.32,-0.72c-1.34,-0.5 -2.42,-1.16 -3.24,-1.98l1.05,-1.71c0.68,0.7 1.59,1.28 2.73,1.74c1.16,0.46 2.42,0.69 3.78,0.69c1.74,0 3.07,-0.38 3.99,-1.14c0.94,-0.76 1.41,-1.78 1.41,-3.06c0,-1.28 -0.46,-2.3 -1.38,-3.06c-0.9,-0.76 -2.33,-1.14 -4.29,-1.14l-1.5,0l0,-1.59l6.48,-8.13l0.3,0.84l-11.7,0l0,-1.92l13.5,0l0,1.53l-6.48,8.13l-1.05,-0.69l0.81,0c2.52,0 4.4,0.56 5.64,1.68c1.26,1.12 1.89,2.56 1.89,4.32c0,1.18 -0.28,2.24 -0.84,3.18c-0.56,0.94 -1.41,1.68 -2.55,2.22c-1.12,0.54 -2.53,0.81 -4.23,0.81zm22.6436,0c-1.68,0 -3.13,-0.24 -4.35,-0.72c-1.2,-0.48 -2.13,-1.17 -2.79,-2.07c-0.64,-0.92 -0.96,-2 -0.96,-3.24c0,-1.2 0.31,-2.22 0.93,-3.06c0.64,-0.86 1.56,-1.52 2.76,-1.98c1.22,-0.46 2.69,-0.69 4.41,-0.69c1.7,0 3.16,0.23 4.3796,0.69c1.22,0.46 2.15,1.12 2.79,1.98c0.66,0.84 0.99,1.86 0.99,3.06c0,1.24 -0.33,2.32 -0.99,3.24c-0.66,0.9 -1.6,1.59 -2.82,2.07c-1.2196,0.48 -2.6696,0.72 -4.3496,0.72zm0,-1.83c1.86,0 3.31,-0.38 4.3496,-1.14c1.06,-0.76 1.59,-1.79 1.59,-3.09c0,-1.3 -0.53,-2.32 -1.59,-3.06c-1.0396,-0.76 -2.4896,-1.14 -4.3496,-1.14c-1.86,0 -3.31,0.38 -4.35,1.14c-1.04,0.74 -1.56,1.76 -1.56,3.06c0,1.3 0.52,2.33 1.56,3.09c1.04,0.76 2.49,1.14 4.35,1.14zm0,-8.7c-1.56,0 -2.89,-0.21 -3.99,-0.63c-1.08,-0.42 -1.91,-1.02 -2.49,-1.8c-0.58,-0.8 -0.87,-1.75 -0.87,-2.85c0,-1.16 0.3,-2.15 0.9,-2.97c0.62,-0.84 1.48,-1.48 2.58,-1.92c1.1,-0.44 2.39,-0.66 3.87,-0.66c1.48,0 2.77,0.22 3.8696,0.66c1.12,0.44 1.99,1.08 2.61,1.92c0.62,0.82 0.93,1.81 0.93,2.97c0,1.1 -0.29,2.05 -0.87,2.85c-0.58,0.78 -1.43,1.38 -2.55,1.8c-1.0996,0.42 -2.4296,0.63 -3.9896,0.63zm0,-1.44c1.64,0 2.92,-0.34 3.8396,-1.02c0.92,-0.68 1.38,-1.59 1.38,-2.73c0,-1.2 -0.48,-2.13 -1.44,-2.79c-0.9396,-0.68 -2.1996,-1.02 -3.7796,-1.02c-1.58,0 -2.84,0.34 -3.78,1.02c-0.94,0.66 -1.41,1.58 -1.41,2.76c0,1.16 0.45,2.08 1.35,2.76c0.92,0.68 2.2,1.02 3.84,1.02zm18.8406,11.79l9.06,-20.04l0.66,0.96l-12.99,0l1.11,-1.05l0,4.98l-2.13,0l0,-5.85l15.42,0l0,1.53l-8.79,19.47l-2.34,0zm59.801,0.18c-1.52,0 -2.96,-0.24 -4.32,-0.72c-1.34,-0.5 -2.42,-1.16 -3.24,-1.98l1.05,-1.71c0.68,0.7 1.59,1.28 2.73,1.74c1.16,0.46 2.42,0.69 3.78,0.69c1.74,0 3.07,-0.38 3.99,-1.14c0.94,-0.76 1.41,-1.78 1.41,-3.06c0,-1.28 -0.46,-2.3 -1.38,-3.06c-0.9,-0.76 -2.33,-1.14 -4.29,-1.14l-1.5,0l0,-1.59l6.48,-8.13l0.3,0.84l-11.7,0l0,-1.92l13.5,0l0,1.53l-6.48,8.13l-1.05,-0.69l0.81,0c2.52,0 4.4,0.56 5.64,1.68c1.26,1.12 1.89,2.56 1.89,4.32c0,1.18 -0.28,2.24 -0.84,3.18c-0.56,0.94 -1.41,1.68 -2.55,2.22c-1.12,0.54 -2.53,0.81 -4.23,0.81zm14.304,-5.7l0,-1.56l11.13,-13.92l2.4,0l-11.04,13.92l-1.17,-0.36l16.89,0l0,1.92l-18.21,0zm11.85,5.52l0,-5.52l0.06,-1.92l0,-4.86l2.1,0l0,12.3l-2.16,0zm20.616,0.18c-1.68,0 -3.13,-0.24 -4.35,-0.72c-1.2,-0.48 -2.13,-1.17 -2.79,-2.07c-0.64,-0.92 -0.96,-2 -0.96,-3.24c0,-1.2 0.31,-2.22 0.93,-3.06c0.64,-0.86 1.56,-1.52 2.76,-1.98c1.22,-0.46 2.69,-0.69 4.41,-0.69c1.7,0 3.16,0.23 4.38,0.69c1.22,0.46 2.151,1.12 2.791,1.98c0.66,0.84 0.99,1.86 0.99,3.06c0,1.24 -0.33,2.32 -0.99,3.24c-0.66,0.9 -1.6,1.59 -2.821,2.07c-1.22,0.48 -2.67,0.72 -4.35,0.72zm0,-1.83c1.86,0 3.31,-0.38 4.35,-1.14c1.06,-0.76 1.59,-1.79 1.59,-3.09c0,-1.3 -0.53,-2.32 -1.59,-3.06c-1.04,-0.76 -2.49,-1.14 -4.35,-1.14c-1.86,0 -3.31,0.38 -4.35,1.14c-1.04,0.74 -1.56,1.76 -1.56,3.06c0,1.3 0.52,2.33 1.56,3.09c1.04,0.76 2.49,1.14 4.35,1.14zm0,-8.7c-1.56,0 -2.89,-0.21 -3.99,-0.63c-1.08,-0.42 -1.91,-1.02 -2.49,-1.8c-0.58,-0.8 -0.87,-1.75 -0.87,-2.85c0,-1.16 0.3,-2.15 0.9,-2.97c0.62,-0.84 1.48,-1.48 2.58,-1.92c1.1,-0.44 2.39,-0.66 3.87,-0.66c1.48,0 2.77,0.22 3.87,0.66c1.12,0.44 1.99,1.08 2.611,1.92c0.619,0.82 0.929,1.81 0.929,2.97c0,1.1 -0.29,2.05 -0.87,2.85c-0.58,0.78 -1.43,1.38 -2.549,1.8c-1.101,0.42 -2.431,0.63 -3.991,0.63zm0,-1.44c1.64,0 2.92,-0.34 3.84,-1.02c0.92,-0.68 1.38,-1.59 1.38,-2.73c0,-1.2 -0.48,-2.13 -1.439,-2.79c-0.941,-0.68 -2.201,-1.02 -3.781,-1.02c-1.58,0 -2.84,0.34 -3.78,1.02c-0.94,0.66 -1.41,1.58 -1.41,2.76c0,1.16 0.45,2.08 1.35,2.76c0.92,0.68 2.2,1.02 3.84,1.02zm23.131,11.97c-1.68,0 -3.13,-0.24 -4.35,-0.72c-1.2,-0.48 -2.13,-1.17 -2.79,-2.07c-0.64,-0.92 -0.96,-2 -0.96,-3.24c0,-1.2 0.31,-2.22 0.93,-3.06c0.64,-0.86 1.56,-1.52 2.76,-1.98c1.22,-0.46 2.69,-0.69 4.41,-0.69c1.7,0 3.16,0.23 4.38,0.69c1.22,0.46 2.15,1.12 2.79,1.98c0.66,0.84 0.99,1.86 0.99,3.06c0,1.24 -0.33,2.32 -0.99,3.24c-0.66,0.9 -1.6,1.59 -2.82,2.07c-1.22,0.48 -2.67,0.72 -4.35,0.72zm0,-1.83c1.86,0 3.31,-0.38 4.35,-1.14c1.06,-0.76 1.59,-1.79 1.59,-3.09c0,-1.3 -0.53,-2.32 -1.59,-3.06c-1.04,-0.76 -2.49,-1.14 -4.35,-1.14c-1.86,0 -3.31,0.38 -4.35,1.14c-1.04,0.74 -1.56,1.76 -1.56,3.06c0,1.3 0.52,2.33 1.56,3.09c1.04,0.76 2.49,1.14 4.35,1.14zm0,-8.7c-1.56,0 -2.89,-0.21 -3.99,-0.63c-1.08,-0.42 -1.91,-1.02 -2.49,-1.8c-0.58,-0.8 -0.87,-1.75 -0.87,-2.85c0,-1.16 0.3,-2.15 0.9,-2.97c0.62,-0.84 1.48,-1.48 2.58,-1.92c1.1,-0.44 2.39,-0.66 3.87,-0.66c1.48,0 2.77,0.22 3.87,0.66c1.12,0.44 1.99,1.08 2.61,1.92c0.62,0.82 0.93,1.81 0.93,2.97c0,1.1 -0.29,2.05 -0.87,2.85c-0.58,0.78 -1.43,1.38 -2.55,1.8c-1.1,0.42 -2.43,0.63 -3.99,0.63zm0,-1.44c1.64,0 2.92,-0.34 3.84,-1.02c0.92,-0.68 1.38,-1.59 1.38,-2.73c0,-1.2 -0.48,-2.13 -1.44,-2.79c-0.94,-0.68 -2.2,-1.02 -3.78,-1.02c-1.58,0 -2.84,0.34 -3.78,1.02c-0.94,0.66 -1.41,1.58 -1.41,2.76c0,1.16 0.45,2.08 1.35,2.76c0.92,0.68 2.2,1.02 3.84,1.02zm54.366,11.79l0,-20.1l0.96,1.02l-5.91,0l0,-1.92l7.11,0l0,21l-2.16,0zm10.79,0l0,-1.53l8.73,-8.55c0.8,-0.78 1.4,-1.46 1.8,-2.04c0.4,-0.6 0.67,-1.16 0.81,-1.68c0.14,-0.52 0.21,-1.01 0.21,-1.47c0,-1.22 -0.42,-2.18 -1.26,-2.88c-0.82,-0.7 -2.04,-1.05 -3.66,-1.05c-1.24,0 -2.34,0.19 -3.3,0.57c-0.94,0.38 -1.75,0.97 -2.43,1.77l-1.53,-1.32c0.82,-0.96 1.87,-1.7 3.15,-2.22c1.28,-0.52 2.71,-0.78 4.29,-0.78c1.42,0 2.65,0.23 3.69,0.69c1.04,0.44 1.84,1.09 2.4,1.95c0.58,0.86 0.87,1.87 0.87,3.03c0,0.68 -0.1,1.35 -0.3,2.01c-0.18,0.66 -0.52,1.36 -1.02,2.1c-0.48,0.72 -1.19,1.54 -2.13,2.46l-8.01,7.86l-0.6,-0.84l13.02,0l0,1.92l-14.73,0zm21.051,0l0,-1.53l8.73,-8.55c0.8,-0.78 1.4,-1.46 1.8,-2.04c0.4,-0.6 0.67,-1.16 0.81,-1.68c0.14,-0.52 0.21,-1.01 0.21,-1.47c0,-1.22 -0.42,-2.18 -1.26,-2.88c-0.82,-0.7 -2.04,-1.05 -3.66,-1.05c-1.24,0 -2.34,0.19 -3.3,0.57c-0.94,0.38 -1.75,0.97 -2.43,1.77l-1.53,-1.32c0.82,-0.96 1.87,-1.7 3.15,-2.22c1.28,-0.52 2.71,-0.78 4.29,-0.78c1.42,0 2.65,0.23 3.69,0.69c1.04,0.44 1.84,1.09 2.4,1.95c0.58,0.86 0.87,1.87 0.87,3.03c0,0.68 -0.1,1.35 -0.3,2.01c-0.18,0.66 -0.52,1.36 -1.02,2.1c-0.48,0.72 -1.19,1.54 -2.13,2.46l-8.01,7.86l-0.6,-0.84l13.02,0l0,1.92l-14.73,0zm27.71,0.18c-1.52,0 -2.96,-0.24 -4.32,-0.72c-1.34,-0.5 -2.42,-1.16 -3.24,-1.98l1.05,-1.71c0.68,0.7 1.59,1.28 2.73,1.74c1.16,0.46 2.42,0.69 3.78,0.69c1.74,0 3.07,-0.38 3.99,-1.14c0.94,-0.76 1.41,-1.78 1.41,-3.06c0,-1.28 -0.46,-2.3 -1.38,-3.06c-0.9,-0.76 -2.33,-1.14 -4.29,-1.14l-1.5,0l0,-1.59l6.48,-8.13l0.3,0.84l-11.7,0l0,-1.92l13.5,0l0,1.53l-6.48,8.13l-1.05,-0.69l0.81,0c2.52,0 4.4,0.56 5.64,1.68c1.26,1.12 1.89,2.56 1.89,4.32c0,1.18 -0.28,2.24 -0.84,3.18c-0.56,0.94 -1.41,1.68 -2.55,2.22c-1.12,0.54 -2.53,0.81 -4.23,0.81zm58.199,0c-1.68,0 -3.13,-0.24 -4.35,-0.72c-1.2,-0.48 -2.13,-1.17 -2.79,-2.07c-0.64,-0.92 -0.96,-2 -0.96,-3.24c0,-1.2 0.31,-2.22 0.93,-3.06c0.64,-0.86 1.56,-1.52 2.76,-1.98c1.22,-0.46 2.69,-0.69 4.41,-0.69c1.7,0 3.16,0.23 4.38,0.69c1.22,0.46 2.15,1.12 2.79,1.98c0.66,0.84 0.99,1.86 0.99,3.06c0,1.24 -0.33,2.32 -0.99,3.24c-0.66,0.9 -1.6,1.59 -2.82,2.07c-1.22,0.48 -2.67,0.72 -4.35,0.72zm0,-1.83c1.86,0 3.31,-0.38 4.35,-1.14c1.06,-0.76 1.59,-1.79 1.59,-3.09c0,-1.3 -0.53,-2.32 -1.59,-3.06c-1.04,-0.76 -2.49,-1.14 -4.35,-1.14c-1.86,0 -3.31,0.38 -4.35,1.14c-1.04,0.74 -1.56,1.76 -1.56,3.06c0,1.3 0.52,2.33 1.56,3.09c1.04,0.76 2.49,1.14 4.35,1.14zm0,-8.7c-1.56,0 -2.89,-0.21 -3.99,-0.63c-1.08,-0.42 -1.91,-1.02 -2.49,-1.8c-0.58,-0.8 -0.87,-1.75 -0.87,-2.85c0,-1.16 0.3,-2.15 0.9,-2.97c0.62,-0.84 1.48,-1.48 2.58,-1.92c1.1,-0.44 2.39,-0.66 3.87,-0.66c1.48,0 2.77,0.22 3.87,0.66c1.12,0.44 1.99,1.08 2.61,1.92c0.62,0.82 0.93,1.81 0.93,2.97c0,1.1 -0.29,2.05 -0.87,2.85c-0.58,0.78 -1.43,1.38 -2.55,1.8c-1.1,0.42 -2.43,0.63 -3.99,0.63zm0,-1.44c1.64,0 2.92,-0.34 3.84,-1.02c0.92,-0.68 1.38,-1.59 1.38,-2.73c0,-1.2 -0.48,-2.13 -1.44,-2.79c-0.94,-0.68 -2.2,-1.02 -3.78,-1.02c-1.58,0 -2.84,0.34 -3.78,1.02c-0.94,0.66 -1.41,1.58 -1.41,2.76c0,1.16 0.45,2.08 1.35,2.76c0.92,0.68 2.2,1.02 3.84,1.02zm21.69,-9.39c1.86,0 3.43,0.42 4.71,1.26c1.28,0.82 2.25,2.01 2.91,3.57c0.66,1.56 0.99,3.45 0.99,5.67c0,2.36 -0.41,4.35 -1.23,5.97c-0.8,1.62 -1.92,2.84 -3.36,3.66c-1.44,0.82 -3.11,1.23 -5.01,1.23c-0.94,0 -1.84,-0.09 -2.7,-0.27c-0.84,-0.18 -1.6,-0.47 -2.28,-0.87l0.87,-1.74c0.54,0.36 1.16,0.62 1.86,0.78c0.72,0.14 1.46,0.21 2.22,0.21c2.26,0 4.06,-0.72 5.4,-2.16c1.36,-1.44 2.04,-3.59 2.04,-6.45c0,-0.46 -0.03,-1.01 -0.09,-1.65c-0.04,-0.64 -0.15,-1.28 -0.33,-1.92l0.75,0.57c-0.2,1.04 -0.63,1.93 -1.29,2.67c-0.64,0.72 -1.44,1.27 -2.4,1.65c-0.94,0.38 -1.99,0.57 -3.15,0.57c-1.38,0 -2.61,-0.26 -3.69,-0.78c-1.06,-0.52 -1.89,-1.25 -2.49,-2.19c-0.6,-0.94 -0.9,-2.05 -0.9,-3.33c0,-1.32 0.31,-2.46 0.93,-3.42c0.62,-0.96 1.47,-1.7 2.55,-2.22c1.1,-0.54 2.33,-0.81 3.69,-0.81zm0.09,1.83c-1,0 -1.89,0.19 -2.67,0.57c-0.76,0.36 -1.36,0.88 -1.8,1.56c-0.44,0.68 -0.66,1.49 -0.66,2.43c0,1.38 0.47,2.48 1.41,3.3c0.96,0.82 2.25,1.23 3.87,1.23c1.08,0 2.02,-0.2 2.82,-0.6c0.82,-0.4 1.45,-0.95 1.89,-1.65c0.46,-0.7 0.69,-1.48 0.69,-2.34c0,-0.78 -0.21,-1.51 -0.63,-2.19c-0.42,-0.68 -1.04,-1.23 -1.86,-1.65c-0.82,-0.44 -1.84,-0.66 -3.06,-0.66zm24.022,19.53c-1.62,0 -3.06,-0.42 -4.32,-1.26c-1.26,-0.86 -2.25,-2.08 -2.97,-3.66c-0.72,-1.6 -1.08,-3.52 -1.08,-5.76c0,-2.24 0.36,-4.15 1.08,-5.73c0.72,-1.6 1.71,-2.82 2.97,-3.66c1.26,-0.86 2.7,-1.29 4.32,-1.29c1.62,0 3.06,0.43 4.32,1.29c1.26,0.84 2.25,2.06 2.97,3.66c0.74,1.58 1.11,3.49 1.11,5.73c0,2.24 -0.37,4.16 -1.11,5.76c-0.72,1.58 -1.71,2.8 -2.97,3.66c-1.26,0.84 -2.7,1.26 -4.32,1.26zm0,-1.98c1.24,0 2.32,-0.33 3.24,-0.99c0.92,-0.68 1.64,-1.66 2.16,-2.94c0.52,-1.3 0.78,-2.89 0.78,-4.77c0,-1.88 -0.26,-3.46 -0.78,-4.74c-0.52,-1.3 -1.24,-2.28 -2.16,-2.94c-0.92,-0.68 -2,-1.02 -3.24,-1.02c-1.2,0 -2.27,0.34 -3.21,1.02c-0.94,0.66 -1.67,1.64 -2.19,2.94c-0.52,1.28 -0.78,2.86 -0.78,4.74c0,1.88 0.26,3.47 0.78,4.77c0.52,1.28 1.25,2.26 2.19,2.94c0.94,0.66 2.01,0.99 3.21,0.99zm22.033,-19.38c1.86,0 3.43,0.42 4.71,1.26c1.28,0.82 2.25,2.01 2.91,3.57c0.66,1.56 0.99,3.45 0.99,5.67c0,2.36 -0.41,4.35 -1.23,5.97c-0.8,1.62 -1.92,2.84 -3.36,3.66c-1.44,0.82 -3.11,1.23 -5.01,1.23c-0.94,0 -1.84,-0.09 -2.7,-0.27c-0.84,-0.18 -1.6,-0.47 -2.28,-0.87l0.87,-1.74c0.54,0.36 1.16,0.62 1.86,0.78c0.72,0.14 1.46,0.21 2.22,0.21c2.26,0 4.06,-0.72 5.4,-2.16c1.36,-1.44 2.04,-3.59 2.04,-6.45c0,-0.46 -0.03,-1.01 -0.09,-1.65c-0.04,-0.64 -0.15,-1.28 -0.33,-1.92l0.75,0.57c-0.2,1.04 -0.63,1.93 -1.29,2.67c-0.64,0.72 -1.44,1.27 -2.4,1.65c-0.94,0.38 -1.99,0.57 -3.15,0.57c-1.38,0 -2.61,-0.26 -3.69,-0.78c-1.06,-0.52 -1.89,-1.25 -2.49,-2.19c-0.6,-0.94 -0.9,-2.05 -0.9,-3.33c0,-1.32 0.31,-2.46 0.93,-3.42c0.62,-0.96 1.47,-1.7 2.55,-2.22c1.1,-0.54 2.33,-0.81 3.69,-0.81zm0.09,1.83c-1,0 -1.89,0.19 -2.67,0.57c-0.76,0.36 -1.36,0.88 -1.8,1.56c-0.44,0.68 -0.66,1.49 -0.66,2.43c0,1.38 0.47,2.48 1.41,3.3c0.96,0.82 2.25,1.23 3.87,1.23c1.08,0 2.02,-0.2 2.82,-0.6c0.82,-0.4 1.45,-0.95 1.89,-1.65c0.46,-0.7 0.69,-1.48 0.69,-2.34c0,-0.78 -0.21,-1.51 -0.63,-2.19c-0.42,-0.68 -1.04,-1.23 -1.86,-1.65c-0.82,-0.44 -1.84,-0.66 -3.06,-0.66z"/>
  <path id="svg_4" fill="white" d="m427.443,287.496c0.706,-3.21 3.55,-5.496 6.836,-5.496l63.545,0c2.556,0 4.456,2.364 3.907,4.859l-9.374,42.608c-0.706,3.21 -3.55,5.496 -6.836,5.496l-63.545,0c-2.556,0 -4.456,-2.364 -3.907,-4.859l9.374,-42.608z"/>
  <path id="svg_5" fill="#E21836" d="m434.991,283.06l20.233,0c2.825,0 4.581,2.302 3.922,5.135l-9.42,40.443c-0.664,2.824 -3.492,5.128 -6.318,5.128l-20.231,0c-2.821,0 -4.581,-2.304 -3.922,-5.128l9.423,-40.443c0.659,-2.833 3.486,-5.135 6.313,-5.135z"/>
  <path id="svg_6" fill="#00447C" d="m453.54,283.06l23.267,0c2.824,0 1.55,2.302 0.886,5.135l-9.418,40.443c-0.661,2.824 -0.455,5.128 -3.285,5.128l-23.267,0c-2.83,0 -4.581,-2.304 -3.916,-5.128l9.418,-40.443c0.668,-2.833 3.489,-5.135 6.315,-5.135z"/>
  <path id="svg_7" fill="#007B84" d="m475.886,283.06l20.233,0c2.829,0 4.585,2.302 3.921,5.135l-9.418,40.443c-0.665,2.824 -3.495,5.128 -6.323,5.128l-20.223,0c-2.83,0 -4.585,-2.304 -3.922,-5.128l9.42,-40.443c0.658,-2.833 3.483,-5.135 6.312,-5.135z"/>
  <path id="svg_8" fill="#FEFEFE" d="m440.275,296.021c-2.081,0.021 -2.695,0 -2.891,-0.047c-0.076,0.359 -1.48,6.835 -1.484,6.841c-0.302,1.31 -0.522,2.244 -1.269,2.847c-0.424,0.351 -0.92,0.52 -1.494,0.52c-0.922,0 -1.46,-0.458 -1.55,-1.327l-0.017,-0.298c0,0 0.281,-1.755 0.281,-1.765c0,0 1.473,-5.902 1.737,-6.683c0.014,-0.044 0.018,-0.067 0.021,-0.088c-2.868,0.025 -3.376,0 -3.411,-0.047c-0.02,0.064 -0.091,0.43 -0.091,0.43l-1.504,6.652l-0.129,0.564l-0.25,1.846c0,0.547 0.107,0.994 0.321,1.372c0.686,1.197 2.641,1.377 3.747,1.377c1.425,0 2.762,-0.303 3.666,-0.856c1.568,-0.926 1.978,-2.375 2.344,-3.662l0.17,-0.66c0,0 1.518,-6.13 1.776,-6.928c0.01,-0.044 0.014,-0.067 0.027,-0.088zm5.165,4.945c-0.366,0 -1.035,0.089 -1.636,0.383c-0.218,0.112 -0.424,0.241 -0.641,0.37l0.196,-0.709l-0.108,-0.119c-1.273,0.258 -1.558,0.292 -2.735,0.458l-0.099,0.066c-0.136,1.132 -0.258,1.984 -0.764,4.211c-0.193,0.82 -0.393,1.649 -0.594,2.467l0.054,0.104c1.206,-0.063 1.572,-0.063 2.62,-0.046l0.085,-0.092c0.133,-0.682 0.15,-0.842 0.445,-2.223c0.139,-0.655 0.428,-2.094 0.57,-2.607c0.262,-0.121 0.521,-0.24 0.767,-0.24c0.587,0 0.516,0.512 0.493,0.716c-0.025,0.343 -0.239,1.462 -0.458,2.424l-0.147,0.62c-0.102,0.458 -0.214,0.903 -0.316,1.358l0.044,0.09c1.189,-0.063 1.551,-0.063 2.566,-0.046l0.12,-0.092c0.183,-1.065 0.237,-1.35 0.562,-2.901l0.164,-0.713c0.318,-1.395 0.478,-2.102 0.237,-2.678c-0.254,-0.645 -0.865,-0.801 -1.425,-0.801zm5.769,1.46c-0.632,0.121 -1.034,0.202 -1.435,0.254c-0.397,0.064 -0.784,0.122 -1.395,0.207l-0.048,0.043l-0.044,0.035c-0.064,0.455 -0.108,0.848 -0.193,1.31c-0.071,0.478 -0.181,1.021 -0.36,1.801c-0.139,0.598 -0.21,0.806 -0.289,1.016c-0.077,0.21 -0.162,0.414 -0.318,1.001l0.037,0.055l0.03,0.049c0.571,-0.027 0.944,-0.046 1.328,-0.049c0.383,-0.014 0.78,0 1.395,0.003l0.053,-0.044l0.058,-0.048c0.089,-0.53 0.102,-0.672 0.156,-0.931c0.054,-0.277 0.147,-0.661 0.374,-1.685c0.108,-0.482 0.228,-0.962 0.339,-1.453c0.116,-0.489 0.237,-0.971 0.353,-1.452l-0.018,-0.058l-0.023,-0.054zm0.014,-1.969c-0.574,-0.339 -1.582,-0.231 -2.26,0.237c-0.676,0.458 -0.753,1.109 -0.181,1.453c0.564,0.329 1.576,0.231 2.248,-0.241c0.674,-0.468 0.759,-1.114 0.193,-1.449zm3.471,7.847c1.162,0 2.352,-0.321 3.248,-1.27c0.69,-0.771 1.006,-1.917 1.115,-2.389c0.357,-1.564 0.079,-2.294 -0.27,-2.739c-0.529,-0.678 -1.465,-0.896 -2.436,-0.896c-0.584,0 -1.975,0.058 -3.061,1.06c-0.78,0.722 -1.141,1.702 -1.358,2.642c-0.22,0.958 -0.472,2.682 1.113,3.324c0.489,0.21 1.195,0.268 1.649,0.268zm-0.091,-3.52c0.268,-1.185 0.584,-2.179 1.391,-2.179c0.632,0 0.678,0.74 0.397,1.928c-0.05,0.264 -0.281,1.245 -0.593,1.663c-0.218,0.308 -0.476,0.495 -0.761,0.495c-0.085,0 -0.589,0 -0.597,-0.749c-0.004,-0.37 0.071,-0.748 0.163,-1.158zm7.357,3.367l0.091,-0.092c0.129,-0.682 0.15,-0.842 0.435,-2.223c0.143,-0.655 0.438,-2.094 0.576,-2.607c0.263,-0.121 0.516,-0.241 0.771,-0.241c0.583,0 0.512,0.513 0.489,0.717c-0.021,0.343 -0.235,1.462 -0.458,2.423l-0.139,0.621c-0.106,0.458 -0.221,0.903 -0.324,1.358l0.045,0.091c1.192,-0.064 1.541,-0.064 2.562,-0.047l0.123,-0.092c0.179,-1.066 0.227,-1.351 0.563,-2.901l0.16,-0.713c0.319,-1.395 0.481,-2.102 0.244,-2.678c-0.262,-0.645 -0.876,-0.801 -1.429,-0.801c-0.366,0 -1.039,0.088 -1.636,0.383c-0.213,0.112 -0.427,0.241 -0.637,0.37l0.182,-0.709l-0.098,-0.12c-1.273,0.259 -1.564,0.293 -2.739,0.459l-0.09,0.066c-0.143,1.132 -0.259,1.984 -0.765,4.211c-0.193,0.82 -0.393,1.649 -0.594,2.468l0.054,0.104c1.208,-0.064 1.568,-0.064 2.614,-0.047zm8.762,0.046c0.075,-0.366 0.52,-2.535 0.524,-2.535c0,0 0.379,-1.591 0.402,-1.649c0,0 0.12,-0.165 0.239,-0.231l0.176,0c1.656,0 3.527,0 4.993,-1.078c0.997,-0.74 1.679,-1.833 1.984,-3.16c0.079,-0.326 0.137,-0.713 0.137,-1.1c0,-0.508 -0.102,-1.011 -0.397,-1.404c-0.748,-1.046 -2.237,-1.066 -3.955,-1.074c-0.006,0 -0.848,0.008 -0.848,0.008c-2.199,0.027 -3.082,0.02 -3.444,-0.025c-0.031,0.16 -0.088,0.446 -0.088,0.446c0,0 -0.789,3.652 -0.789,3.658c0,0 -1.885,7.765 -1.974,8.131c1.921,-0.023 2.708,-0.023 3.04,0.013zm1.46,-6.488c0,0 0.838,-3.645 0.834,-3.631l0.027,-0.187l0.012,-0.142l0.335,0.034c0,0 1.728,0.149 1.768,0.153c0.682,0.264 0.963,0.944 0.767,1.831c-0.179,0.812 -0.705,1.494 -1.381,1.823c-0.557,0.279 -1.239,0.302 -1.942,0.302l-0.455,0l0.035,-0.183zm5.217,3.142c-0.222,0.944 -0.476,2.668 1.101,3.283c0.503,0.214 0.954,0.277 1.412,0.254c0.484,-0.026 0.932,-0.268 1.348,-0.618c-0.038,0.144 -0.075,0.287 -0.113,0.431l0.072,0.093c1.135,-0.048 1.487,-0.048 2.716,-0.039l0.112,-0.085c0.179,-1.055 0.348,-2.08 0.815,-4.099c0.227,-0.967 0.454,-1.925 0.687,-2.888l-0.036,-0.106c-1.27,0.235 -1.609,0.286 -2.83,0.459l-0.093,0.075c-0.012,0.098 -0.025,0.193 -0.037,0.287c-0.19,-0.307 -0.465,-0.569 -0.889,-0.732c-0.543,-0.214 -1.819,0.062 -2.915,1.06c-0.77,0.712 -1.14,1.689 -1.35,2.625zm2.666,0.058c0.271,-1.163 0.584,-2.148 1.392,-2.148c0.512,0 0.781,0.472 0.726,1.277c-0.043,0.201 -0.09,0.412 -0.146,0.652c-0.08,0.345 -0.168,0.688 -0.254,1.031c-0.086,0.235 -0.187,0.456 -0.298,0.604c-0.209,0.295 -0.704,0.478 -0.989,0.478c-0.081,0 -0.58,0 -0.597,-0.736c-0.004,-0.366 0.072,-0.744 0.166,-1.158zm13.922,-3.841l-0.098,-0.112c-1.256,0.254 -1.484,0.295 -2.638,0.451l-0.084,0.084c-0.004,0.014 -0.008,0.035 -0.014,0.055l-0.004,-0.02c-0.859,1.982 -0.834,1.555 -1.533,3.115c-0.004,-0.071 -0.004,-0.115 -0.008,-0.191l-0.175,-3.382l-0.11,-0.112c-1.316,0.254 -1.347,0.295 -2.562,0.451l-0.095,0.084c-0.013,0.041 -0.013,0.085 -0.021,0.134l0.008,0.017c0.152,0.776 0.116,0.603 0.268,1.828c0.071,0.601 0.166,1.206 0.237,1.8c0.119,0.993 0.187,1.482 0.333,2.999c-0.821,1.354 -1.015,1.867 -1.805,3.055l0.005,0.012l-0.556,0.88c-0.063,0.092 -0.121,0.156 -0.202,0.183c-0.089,0.044 -0.204,0.052 -0.364,0.052l-0.309,0l-0.458,1.524l1.572,0.027c0.923,-0.004 1.503,-0.436 1.815,-1.016l0.988,-1.693l-0.016,0l0.104,-0.119c0.665,-1.432 5.722,-10.106 5.722,-10.106zm-16.588,20.013l-0.667,0l2.468,-8.162l0.818,0l0.26,-0.841l0.025,0.935c-0.03,0.578 0.425,1.091 1.619,1.006l1.381,0l0.476,-1.572l-0.52,0c-0.299,0 -0.438,-0.075 -0.42,-0.237l-0.025,-0.951l-2.558,0l0,0.005c-0.827,0.017 -3.297,0.079 -3.797,0.212c-0.605,0.156 -1.243,0.615 -1.243,0.615l0.25,-0.842l-2.392,0l-0.499,1.67l-2.501,8.287l-0.485,0l-0.476,1.561l4.766,0l-0.16,0.52l2.349,0l0.155,-0.52l0.659,0l0.517,-1.686zm-1.956,-6.503c-0.383,0.106 -1.096,0.427 -1.096,0.427l0.634,-2.086l1.901,0l-0.458,1.52c0,0 -0.588,0.035 -0.981,0.139zm0.037,2.98c0,0 -0.597,0.075 -0.99,0.164c-0.388,0.117 -1.114,0.487 -1.114,0.487l0.655,-2.171l1.911,0l-0.462,1.52zm-1.065,3.543l-1.907,0l0.552,-1.832l1.901,0l-0.546,1.832zm4.592,-5.063l2.749,0l-0.395,1.279l-2.785,0l-0.419,1.399l2.438,0l-1.846,2.598c-0.129,0.191 -0.245,0.259 -0.374,0.312c-0.129,0.066 -0.298,0.143 -0.495,0.143l-0.676,0l-0.464,1.532l1.768,0c0.919,0 1.462,-0.419 1.863,-0.967l1.266,-1.732l0.271,1.758c0.058,0.33 0.295,0.522 0.455,0.597c0.177,0.089 0.36,0.242 0.619,0.264c0.277,0.012 0.477,0.021 0.61,0.021l0.869,0l0.522,-1.714l-0.343,0c-0.197,0 -0.536,-0.033 -0.593,-0.094c-0.058,-0.075 -0.058,-0.191 -0.089,-0.366l-0.276,-1.763l-1.129,0l0.496,-0.589l2.78,0l0.427,-1.399l-2.574,0l0.401,-1.279l2.566,0l0.476,-1.578l-7.65,0l-0.468,1.578zm-23.217,5.419l0.642,-2.135l2.637,0l0.481,-1.587l-2.639,0l0.403,-1.314l2.579,0l0.478,-1.537l-6.453,0l-0.468,1.537l1.466,0l-0.391,1.314l-1.47,0l-0.488,1.615l1.466,0l-0.855,2.823c-0.116,0.374 0.054,0.517 0.162,0.69c0.11,0.17 0.221,0.281 0.472,0.345c0.258,0.058 0.435,0.092 0.676,0.092l2.972,0l0.53,-1.758l-1.318,0.181c-0.254,0 -0.959,-0.031 -0.882,-0.266zm0.303,-10.218l-0.669,1.208c-0.143,0.264 -0.271,0.428 -0.387,0.503c-0.102,0.064 -0.305,0.09 -0.597,0.09l-0.349,0l-0.466,1.545l1.158,0c0.557,0 0.984,-0.204 1.188,-0.306c0.22,-0.117 0.277,-0.05 0.447,-0.214l0.391,-0.339l3.616,0l0.48,-1.608l-2.647,0l0.462,-0.879l-2.627,0zm5.338,10.249c-0.062,-0.089 -0.018,-0.245 0.077,-0.571l0.988,-3.271l3.516,0c0.512,-0.007 0.882,-0.013 1.123,-0.03c0.258,-0.028 0.539,-0.12 0.845,-0.285c0.316,-0.174 0.478,-0.357 0.615,-0.567c0.152,-0.21 0.397,-0.668 0.607,-1.375l1.242,-4.14l-3.648,0.021c0,0 -1.124,0.166 -1.618,0.349c-0.499,0.204 -1.212,0.774 -1.212,0.774l0.329,-1.135l-2.254,0l-3.155,10.465c-0.112,0.406 -0.187,0.701 -0.204,0.878c-0.006,0.191 0.241,0.38 0.4,0.522c0.189,0.143 0.468,0.12 0.736,0.143c0.282,0.021 0.682,0.034 1.235,0.034l1.732,0l0.532,-1.795l-1.551,0.147c-0.166,0 -0.285,-0.089 -0.335,-0.164zm1.703,-6.051l3.692,0l-0.234,0.736c-0.033,0.017 -0.112,-0.037 -0.488,0.008l-3.198,0l0.228,-0.744zm0.739,-2.468l3.724,0l-0.268,0.886c0,0 -1.755,-0.017 -2.036,0.035c-1.237,0.214 -1.959,0.875 -1.959,0.875l0.539,-1.796zm2.801,5.668c-0.03,0.11 -0.079,0.177 -0.146,0.227c-0.075,0.048 -0.196,0.066 -0.377,0.066l-0.527,0l0.031,-0.897l-2.188,0l-0.089,4.381c-0.003,0.316 0.027,0.499 0.258,0.646c0.232,0.183 0.944,0.206 1.904,0.206l1.371,0l0.495,-1.64l-1.194,0.066l-0.397,0.023c-0.054,-0.023 -0.106,-0.044 -0.164,-0.102c-0.05,-0.05 -0.135,-0.019 -0.121,-0.336l0.01,-1.122l1.252,-0.052c0.676,0 0.965,-0.22 1.211,-0.43c0.236,-0.2 0.313,-0.431 0.401,-0.743l0.21,-0.995l-1.72,0l-0.22,0.702z"/>
  <path id="svg_14" fill="white" d="m454.595,60.6322l2.398,0c1.058,0 1.622,-0.6368 1.622,-1.4859c0,-0.9198 -0.705,-1.3443 -1.622,-1.3443l-2.398,0l0,2.8302zm5.431,-8.6322l0,1.7689l-5.431,0l0,2.1227l2.68,0c1.975,0 3.526,1.2028 3.526,3.2547c0,2.0519 -1.481,3.184 -3.597,3.184l-4.796,0l0,-10.3303l7.618,0z"/>
  <path id="svg_15" fill="white" d="m468.491,58.4388l2.75,0l-1.41,-4.1039l-1.34,4.1039zm2.609,-6.4388l3.597,10.4011l-2.327,0l-0.635,-2.1227l-3.809,0l-0.705,2.1227l-2.257,0l3.597,-10.4011l2.539,0z"/>
  <path id="svg_16" fill="white" d="m481.112,55.9623l4.02,0l0,-3.9623l2.187,0l0,10.4011l-2.187,0l0,-4.6699l-4.02,0l0,4.6699l-2.116,0l0,-10.4011l2.116,0l0,3.9623z"/>
  <path id="svg_17" fill="white" d="m494.094,56.2453l3.95,-4.2453l2.75,0l-4.161,4.2453l4.444,6.1558l-2.822,0l-3.174,-4.5991l-0.987,1.0613l0,3.5378l-2.186,0l0,-10.4011l2.186,0l0,4.2453z"/>
  <path id="svg_18" fill="white" d="m299.423,85.5383l0.352,0.1415l-0.564,2.3349c-1.552,0.7784 -3.244,1.1321 -5.29,1.1321c-1.41,0 -2.75,-0.2122 -3.95,-0.6368c-1.199,-0.4245 -2.327,-1.0613 -3.173,-1.8396c-0.917,-0.7783 -1.623,-1.7689 -2.116,-2.901c-0.494,-1.0613 -0.776,-2.3349 -0.776,-3.6793c0,-1.6981 0.282,-3.184 0.846,-4.5284c0.564,-1.2736 1.27,-2.4057 2.257,-3.2547c0.988,-0.8491 2.116,-1.4859 3.386,-1.9104c1.269,-0.4246 2.68,-0.6368 4.161,-0.6368c0.917,0 1.834,0.1415 2.892,0.3537c0.987,0.2123 1.834,0.5661 2.609,0.9906c-0.07,0.4246 -0.211,0.8491 -0.352,1.4151c-0.141,0.5661 -0.212,0.9906 -0.282,1.3444l-0.353,0c-0.494,-0.7783 -1.128,-1.3444 -1.975,-1.7689c-0.846,-0.4245 -1.622,-0.7076 -2.468,-0.7076c-1.058,0 -1.975,0.2123 -2.822,0.7076c-0.776,0.4953 -1.481,1.1321 -1.975,1.9104c-0.493,0.7783 -0.916,1.6981 -1.128,2.618c-0.282,0.9906 -0.353,1.9811 -0.353,2.9717c0,1.5566 0.212,2.901 0.706,4.0331c0.493,1.2028 1.199,2.1227 2.186,2.7595c0.987,0.6368 2.116,0.9905 3.456,0.9905c0.846,0 1.693,-0.2122 2.539,-0.566c0.847,-0.2123 1.622,-0.7076 2.187,-1.2736z" clip-rule="evenodd" fill-rule="evenodd"/>
  <path id="svg_19" fill="white" d="m321.218,76.1282c-0.352,-1.1321 -0.846,-2.1227 -1.622,-3.0425c-0.776,-0.9199 -1.763,-1.6982 -3.033,-2.2642c-1.269,-0.5661 -2.821,-0.8491 -4.655,-0.8491c-1.622,0 -3.103,0.283 -4.443,0.7783c-1.34,0.3538 -2.398,1.0614 -3.315,1.9104c-0.917,0.9199 -1.622,1.9104 -2.116,3.1133c-0.494,1.2028 -0.706,2.4057 -0.706,3.75c0,1.9812 0.424,3.7501 1.27,5.1652c0.776,1.4151 1.975,2.5472 3.456,3.3255c1.481,0.7783 3.245,1.1321 5.219,1.1321c1.623,0 3.033,-0.283 4.373,-0.7783c1.34,-0.4953 2.398,-1.2028 3.386,-2.1227c0.917,-0.9198 1.622,-1.9104 2.116,-3.1132c0.493,-1.1321 0.705,-2.4057 0.705,-3.7501c-0.07,-1.0613 -0.282,-2.1934 -0.635,-3.2547zm-6.982,-3.9624c0.705,0.4246 1.34,0.9906 1.763,1.6982c0.494,0.7075 0.776,1.5566 0.987,2.4057c0.212,0.849 0.353,1.7689 0.353,2.6887c0,1.5566 -0.212,2.9717 -0.635,4.2453c-0.423,1.3444 -1.128,2.4057 -1.975,3.184c-0.917,0.7784 -2.045,1.2029 -3.315,1.2029c-1.269,0 -2.327,-0.3538 -3.173,-1.0613c-0.847,-0.7076 -1.482,-1.5567 -1.834,-2.6888c-0.423,-1.1321 -0.565,-2.2641 -0.565,-3.5377c0,-1.9812 0.212,-3.6086 0.706,-4.953c0.494,-1.3443 1.128,-2.2641 2.045,-2.9717c0.917,-0.6368 1.975,-0.9906 3.174,-0.9906c0.917,0.1415 1.763,0.3538 2.469,0.7783z" clip-rule="evenodd" fill-rule="evenodd"/>
  <path id="svg_20" fill="white" d="m329.54,70.3259c0,0 0.211,0 0.493,0.0708c0.282,0.0707 0.494,0.0707 0.635,0.0707c0.071,0 0.141,0 0.282,0c0.071,0 0.212,0 0.282,-0.0707c0.141,0 0.212,0 0.282,-0.0708c0.071,0 0.212,0 0.283,0c0.564,1.6274 1.128,3.1133 1.622,4.3161c0.493,1.2736 1.058,2.7595 1.763,4.5991c0.705,1.8397 1.27,3.2548 1.693,4.2454c0.423,1.0613 1.128,2.7595 2.116,5.2359c-0.353,0 -0.635,-0.0707 -0.917,-0.0707c-0.282,0 -0.494,-0.0708 -0.776,-0.0708c-0.282,0 -0.494,0 -0.635,0c-0.141,0 -0.423,0 -0.705,0c-0.282,0 -0.564,0.0708 -0.776,0.0708c-0.282,0 -0.564,0.0707 -0.917,0.0707c-0.282,-0.9906 -0.635,-2.0519 -0.987,-3.184c-0.353,-1.1321 -0.706,-2.1227 -1.058,-2.901c-0.282,-0.849 -0.776,-1.9811 -1.27,-3.467c-0.564,-1.4859 -1.058,-2.6887 -1.41,-3.7501c-2.187,5.3067 -3.809,9.6936 -4.938,13.3021c-0.423,-0.0707 -0.846,-0.0707 -1.269,-0.0707c-0.423,0 -0.847,0 -1.27,0.0707c0.776,-1.7689 1.481,-3.3963 2.116,-4.8821c0.635,-1.4859 1.199,-2.9718 1.834,-4.3869c0.564,-1.4151 1.199,-2.901 1.763,-4.4576c0.635,-1.4859 1.199,-3.0425 1.764,-4.6699z" clip-rule="evenodd" fill-rule="evenodd"/>
  <path id="svg_21" fill="white" d="m341.954,88.8633l0,-18.3965c0.283,0 0.565,0.0708 0.776,0.0708c0.212,0 0.423,0.0707 0.635,0.0707c0.212,0 0.423,0 0.564,0c0.141,0 0.353,0 0.565,0c0.211,0 0.423,-0.0707 0.705,-0.0707c0.211,-0.0708 0.494,-0.0708 0.776,-0.0708l0,12.6653c0.776,-0.8491 1.692,-1.8397 2.609,-2.9718c0.917,-1.1321 1.834,-2.1934 2.681,-3.2547c0.846,-1.0614 1.692,-2.1935 2.609,-3.3256c0.847,-1.2028 1.622,-2.1934 2.328,-3.1132c0.211,0 0.423,0 0.846,0c0.564,0 0.917,0 1.199,0l0,18.4672c-0.211,0 -0.564,0 -0.987,-0.0707c-0.423,0 -0.776,-0.0708 -1.058,-0.0708c-0.212,0 -0.564,0 -0.988,0.0708c-0.423,0 -0.776,0.0707 -0.987,0.0707l0,-12.736c-0.776,0.9198 -1.552,1.8397 -2.398,2.7595c-0.847,0.9906 -1.693,2.0519 -2.751,3.3255c-1.058,1.2736 -1.975,2.4765 -2.821,3.5378c-0.847,1.1321 -1.622,2.1227 -2.257,3.0425c-0.212,0 -0.494,-0.0708 -0.847,-0.0708c-0.493,0.0708 -0.916,0.0708 -1.199,0.0708z" clip-rule="evenodd" fill-rule="evenodd"/>
  <path id="svg_22" fill="white" d="m361.421,88.2264c0,0.5661 -0.07,1.0614 -0.141,1.4152l0.423,0c0.353,-0.4246 0.847,-0.6368 1.623,-0.7784c0.776,-0.1415 1.763,-0.2122 2.962,-0.2122l7.899,0c1.058,0 1.975,0.0707 2.751,0.2122c0.776,0.0708 1.34,0.3538 1.622,0.7784l0.424,0c-0.141,-0.4953 -0.141,-0.9906 -0.141,-1.4152c0,-0.0707 0.07,-0.566 0.141,-1.4151l-1.27,0c-2.469,-6.085 -4.584,-11.6039 -6.348,-16.4153c-0.141,0 -0.352,0 -0.564,0.0708c-0.212,0 -0.423,0 -0.564,0c-0.141,0 -0.353,0 -0.565,0c-0.211,0 -0.423,-0.0708 -0.564,-0.0708c-0.423,1.1321 -0.846,2.4057 -1.41,3.8208c-0.565,1.4151 -1.129,2.8302 -1.764,4.3161c-0.634,1.5566 -1.128,2.8302 -1.622,3.8916c-0.423,1.0613 -1.058,2.5472 -1.834,4.3868l-1.128,0c0,0.5661 0.07,0.9906 0.07,1.4151zm5.079,-1.4151c-0.847,-0.0707 -1.411,-0.0707 -1.834,-0.0707c0.846,-2.5472 2.327,-6.368 4.302,-11.3209c0.917,2.5472 1.763,4.6698 2.398,6.368c0.635,1.6981 1.199,3.3962 1.693,4.9529c-0.423,0 -1.129,0 -1.975,0.0707c-0.846,0 -1.693,0 -2.398,0c-0.635,0.0708 -1.34,0.0708 -2.186,0z" clip-rule="evenodd" fill-rule="evenodd"/>
  <path id="svg_23" fill="white" d="m392.809,88.7928c0.211,0 0.635,0 1.128,-0.0707c0.494,0 0.847,-0.0708 1.129,-0.0708c0.282,0 0.635,0 1.128,0.0708c0.494,0 0.917,0.0707 1.199,0.0707l-7.476,-18.6087c-0.353,0.0707 -0.635,0.0707 -0.987,0.0707c-0.353,0 -0.635,0 -0.988,-0.0707l-7.617,18.6087c0.141,0 0.352,0 0.635,0c0.282,0 0.493,0 0.634,0c0.141,0 0.353,0 0.635,0c0.282,0 0.494,0 0.635,0c0.141,-0.4953 0.282,-0.9905 0.494,-1.6273c0.211,-0.5661 0.423,-1.2736 0.705,-2.052c0.282,-0.7783 0.494,-1.4151 0.635,-1.9104l6.277,0c0.423,1.1321 1.058,2.9718 1.834,5.5897zm-4.867,-13.5143l2.398,6.2973l-4.866,0l2.468,-6.2973z" clip-rule="evenodd" fill-rule="evenodd"/>
  <path id="svg_24" fill="white" d="m407.544,80.3018c1.199,-0.3537 2.116,-0.9198 2.821,-1.7689c0.705,-0.849 1.058,-2.0519 1.058,-3.5377c0,-1.4859 -0.494,-2.6888 -1.481,-3.3963c-0.987,-0.7783 -2.398,-1.1321 -4.232,-1.1321l-6.559,0l0,18.3965c0.211,0 0.564,0 0.987,-0.0708c0.423,0 0.776,-0.0707 0.988,-0.0707c0.211,0 0.564,0 0.987,0.0707c0.423,0 0.776,0.0708 0.987,0.0708l0,-7.9954c1.693,-0.0708 3.174,-0.283 4.444,-0.5661zm-2.821,-8.4199c0.705,0 1.34,0.3538 1.763,0.9906c0.494,0.6368 0.705,1.4859 0.705,2.5472c0,0.9198 -0.211,1.6981 -0.564,2.3349c-0.423,0.6368 -0.987,1.0614 -1.834,1.3444c-0.352,0.0707 -0.987,0.1415 -1.763,0.2123l0,-7.4294l1.693,0l0,0z" clip-rule="evenodd" fill-rule="evenodd"/>
  <path id="svg_25" fill="white" d="m413.966,88.7925l0,-18.3965c0.282,0 0.564,0.0708 0.775,0.0708c0.212,0 0.424,0.0707 0.635,0.0707c0.212,0 0.423,0 0.564,0c0.142,0 0.353,0 0.565,0c0.211,0 0.423,-0.0707 0.634,-0.0707c0.212,-0.0708 0.494,-0.0708 0.776,-0.0708l0,7.2878c2.257,0.0708 3.597,0.1415 4.091,0.1415c0.423,0 1.763,-0.0707 4.091,-0.1415l0,-7.2878c0.282,0 0.564,0.0708 0.776,0.0708c0.211,0 0.423,0.0707 0.635,0.0707c0.211,0 0.423,0 0.564,0c0.141,0 0.352,0 0.564,0c0.212,0 0.423,-0.0707 0.635,-0.0707c0.211,0 0.494,-0.0708 0.776,-0.0708l0,18.3965c-0.212,0 -0.565,0 -0.988,-0.0708c-0.423,0 -0.776,-0.0707 -0.987,-0.0707c-0.212,0 -0.564,0 -0.988,0.0707c-0.423,0 -0.775,0.0708 -0.987,0.0708l0,-8.986c-1.834,-0.0708 -3.244,-0.0707 -4.091,-0.0707c-0.917,0 -2.327,-0.0001 -4.091,0.0707l0,8.986c-0.211,0 -0.564,0 -0.987,-0.0708c-0.423,0 -0.776,-0.0707 -0.988,-0.0707c-0.211,0 -0.564,0 -0.987,0.0707c-0.423,0.0708 -0.776,0.0708 -0.987,0.0708z" clip-rule="evenodd" fill-rule="evenodd"/>
  <path id="svg_26" fill="white" d="m453.398,76.1282c-0.352,-1.1321 -0.917,-2.1227 -1.693,-3.0425c-0.775,-0.9199 -1.763,-1.6982 -3.032,-2.2642c-1.27,-0.5661 -2.822,-0.8491 -4.655,-0.8491c-1.623,0 -3.104,0.283 -4.373,0.7783c-1.34,0.4953 -2.469,1.2029 -3.315,2.0519c-0.917,0.9199 -1.623,1.9104 -2.046,3.1133c-0.493,1.2028 -0.705,2.4057 -0.705,3.75c0,1.9812 0.423,3.7501 1.27,5.1652c0.846,1.4151 1.974,2.5472 3.456,3.3255c1.481,0.7783 3.244,1.1321 5.219,1.1321c1.622,0 3.033,-0.283 4.373,-0.7783c1.34,-0.4953 2.468,-1.2028 3.385,-2.1227c0.917,-0.9198 1.622,-1.9104 2.116,-3.1132c0.494,-1.1321 0.706,-2.4057 0.706,-3.7501c-0.212,-1.2028 -0.353,-2.3349 -0.706,-3.3962zm-6.982,-3.9624c0.705,0.4246 1.34,0.9906 1.763,1.6982c0.494,0.7075 0.776,1.5566 0.987,2.4057c0.212,0.849 0.353,1.7689 0.353,2.6887c0,1.5566 -0.212,2.9717 -0.635,4.2453c-0.423,1.3444 -1.128,2.4057 -2.045,3.184c-0.917,0.7784 -1.975,1.2029 -3.315,1.2029c-1.27,0 -2.328,-0.3538 -3.174,-1.0613c-0.846,-0.7076 -1.481,-1.5567 -1.834,-2.6888c-0.423,-1.1321 -0.564,-2.2641 -0.564,-3.5378c0,-1.9811 0.211,-3.6085 0.705,-4.9529c0.494,-1.3443 1.129,-2.2641 2.046,-2.9717c0.917,-0.6368 1.974,-0.9906 3.174,-0.9906c0.916,0.1415 1.763,0.3538 2.539,0.7783z" clip-rule="evenodd" fill-rule="evenodd"/>
  <path id="svg_27" fill="white" d="m471.38,85.3257l0.353,0.1415l-0.564,2.3349c-1.481,0.7784 -3.245,1.1321 -5.29,1.1321c-2.61,0 -5.219,-0.7075 -7.194,-2.4764c-0.917,-0.7783 -1.622,-1.7689 -2.116,-2.901c-0.494,-1.1321 -0.776,-2.3349 -0.776,-3.6793c0,-1.6981 0.282,-3.184 0.846,-4.5284c0.565,-1.2736 1.34,-2.4057 2.257,-3.184c0.988,-0.849 2.116,-1.4858 3.386,-1.9104c1.269,-0.4245 2.68,-0.6368 4.161,-0.6368c0.917,0 1.834,0.1415 2.892,0.3538c0.987,0.2123 1.834,0.566 2.61,0.9906c-0.071,0.4245 -0.212,0.849 -0.283,1.4151c-0.141,0.566 -0.211,0.9906 -0.282,1.3444l-0.352,0c-0.494,-0.7784 -1.199,-1.3444 -1.975,-1.7689c-0.847,-0.4246 -1.622,-0.6368 -2.469,-0.6368c-1.058,0 -2.045,0.2122 -2.821,0.7075c-0.776,0.4953 -1.411,1.1321 -1.975,1.9104c-0.494,0.7783 -0.917,1.6982 -1.128,2.618c-0.212,0.9906 -0.353,1.9811 -0.353,2.9717c0,1.4859 0.212,2.901 0.776,4.0331c0.494,1.2028 1.199,2.1227 2.186,2.7595c0.988,0.6368 2.116,0.9906 3.456,0.9906c0.776,0 1.622,-0.2123 2.539,-0.5661c0.776,-0.3538 1.482,-0.8491 2.116,-1.4151z" clip-rule="evenodd" fill-rule="evenodd"/>
  <path id="svg_28" fill="white" d="m483.23,72.3772l0,16.5568c-0.211,0 -0.564,0 -0.987,-0.0707c-0.423,0 -0.776,0 -0.988,0c-0.211,0 -0.564,0 -0.987,0c-0.494,0 -0.776,0.0707 -0.988,0.0707l0,-16.5568c-1.481,0 -3.173,0.1415 -5.007,0.3538c0.07,-0.6368 0.141,-0.9906 0.141,-1.1321c0,-0.1415 -0.071,-0.4953 -0.141,-1.1321l13.753,0c0,0.1415 -0.07,0.283 -0.07,0.4245c0,0.1415 -0.071,0.2123 -0.071,0.3538c0,0.1415 0,0.2123 0,0.3538c0,0.0707 0,0.2123 0,0.3538c0,0.1415 0.071,0.283 0.071,0.3537c0,0.1416 0.07,0.2831 0.07,0.4246c-2.116,-0.283 -3.738,-0.3538 -4.796,-0.3538z" clip-rule="evenodd" fill-rule="evenodd"/>
  <path id="svg_29" fill="white" d="m493.666,70.3967c-0.423,0 -0.776,0.0707 -1.058,0.0707c-0.282,0 -0.635,0 -1.058,-0.0707c-0.423,0 -0.705,-0.0708 -0.917,-0.0708l0,18.3965l5.361,0c2.045,0 3.667,-0.4245 5.007,-1.2736c1.27,-0.8491 1.905,-2.4057 1.905,-4.5991c0,-1.4859 -0.494,-2.618 -1.481,-3.3963c-0.988,-0.7783 -2.399,-1.1321 -4.303,-1.1321l-2.609,0l0,-7.9954c-0.142,0.0708 -0.424,0.0708 -0.847,0.0708zm2.61,9.4813c0.705,0 1.269,0.3537 1.763,0.9905c0.494,0.7076 0.705,1.4859 0.705,2.618c0,0.9198 -0.211,1.6981 -0.634,2.3349c-0.353,0.6368 -0.988,1.1321 -1.834,1.3444c-0.423,0.1415 -1.058,0.2123 -1.763,0.2123l0,-7.5001l1.763,0z" clip-rule="evenodd" fill-rule="evenodd"/>
  <path id="svg_30" fill="white" d="m262.819,65.7266c0.353,0 0.706,-0.1415 1.129,-0.283l12.484,-4.7406c-1.693,-2.6888 -6.348,-8.2077 -13.472,-8.6322c-0.564,-0.0708 -1.128,-0.0708 -1.622,-0.0708c-6.912,0 -12.202,3.1133 -15.587,8.6322c-2.257,3.6085 -2.751,7.2878 -2.751,10.0473c0,1.8397 0.212,3.2548 0.353,3.9623c0.211,1.6274 1.058,3.2548 1.481,3.5378c0.282,0.2123 0.776,0.3538 1.199,0.3538c0.282,0 0.635,-0.0708 0.917,-0.1415l12.343,-4.6699c-0.353,-0.6368 -1.129,-1.9812 -2.539,-5.0236c-2.187,-4.8114 -3.033,-7.7124 -3.245,-9.8351c0.071,-0.283 0.071,-0.4245 0.071,-0.566c0,-0.6368 0.352,-1.2736 0.987,-1.2736c0.846,0.0707 1.552,0.7783 2.398,1.6273c1.552,1.5567 3.809,5.3775 4.585,6.4388c0.423,0.4953 0.776,0.6368 1.269,0.6368z" clip-rule="evenodd" fill-rule="evenodd"/>
  <path id="svg_31" fill="white" d="m260.282,75.9157c-0.353,0 -0.776,0.0707 -1.128,0.283l-12.414,4.7406c1.693,2.6887 6.348,8.1369 13.472,8.6322c0.564,0.0708 1.058,0.0708 1.622,0.0708c6.841,0 12.202,-3.1133 15.587,-8.6322c2.187,-3.6086 2.751,-7.2879 2.751,-10.1181c0,-1.8396 -0.212,-3.184 -0.353,-3.8915c-0.211,-1.6274 -1.058,-3.2548 -1.551,-3.5378c-0.283,-0.2123 -0.776,-0.3538 -1.27,-0.3538c-0.282,0 -0.635,0.0707 -0.917,0.1415l-12.343,4.6699c0.353,0.6368 1.129,1.9811 2.539,5.0236c2.187,4.8114 3.033,7.6417 3.245,9.8351c0,0.1415 0,0.3538 0,0.4953c0,0.6368 -0.353,1.2736 -0.917,1.2736c-0.847,-0.0708 -1.552,-0.7783 -2.398,-1.6274c-1.552,-1.5566 -3.809,-5.3774 -4.585,-6.4388c-0.423,-0.4245 -0.846,-0.566 -1.34,-0.566z" clip-rule="evenodd" fill-rule="evenodd"/>
  <g fill="white" id="svg_52">
   <path stroke="null" id="svg_36" d="m107.79379,110.29381l-57.33539,0c-4.38659,0 -7.95528,3.5687 -7.95528,7.95528l0,41.28148c0,4.38659 3.5687,7.95528 7.95528,7.95528l57.33539,0c4.38659,0 7.95528,-3.5687 7.95528,-7.95528l0,-41.28148c0,-4.38659 -3.5687,-7.95528 -7.95528,-7.95528zm1.21838,27.52099l-17.34395,0l0,-8.09862c0,-0.67183 0.54655,-1.21838 1.21838,-1.21838l16.12558,0l0,9.317zm-17.34395,2.15008l17.34395,0l0,9.317l-17.34395,0l0,-9.317zm19.49403,-5.73354l2.43675,0l0,9.317l-2.43675,0l0,-9.317zm0,-2.15008l0,-9.317l2.43675,0l0,9.317l-2.43675,0zm-2.15008,-5.73354l-16.12558,0c-1.85738,0 -3.36845,1.51107 -3.36845,3.36845l0,31.03278l-20.78408,0l0,-43.71823l39.05973,0c0.67183,0 1.21838,0.54655 1.21838,1.21838l0,8.09862zm-42.42819,11.46708l-17.34395,0l0,-9.317l17.34395,0l0,9.317zm-19.49403,5.73354l-2.43675,0l0,-9.317l2.43675,0l0,9.317zm2.15008,-3.58346l17.34395,0l0,9.317l-17.34395,0l0,-9.317zm30.96111,-25.08423l0,-2.43675l19.63737,0l0,2.43675l-19.63737,0zm-2.15008,0l-19.63737,0l0,-2.43675l19.63737,0l0,2.43675zm-11.46708,2.15008l0,9.317l-17.34395,0l0,-8.09862c0,-0.67183 0.54655,-1.21838 1.21838,-1.21838l16.12558,0zm-19.49403,15.05054l-2.43675,0l0,-9.317l2.43675,0l0,9.317zm-2.43675,13.61715l2.43675,0l0,9.317l-2.43675,0l0,-9.317zm4.58683,5.73354l17.34395,0l0,9.317l-16.12558,0c-0.67183,0 -1.21838,-0.54655 -1.21838,-1.21838l0,-8.09862zm28.81103,11.46708l0,2.43675l-19.63737,0l0,-2.43675l19.63737,0zm2.15008,0l19.63737,0l0,2.43675l-19.63737,0l0,-2.43675zm11.46708,-2.15008l0,-9.317l17.34395,0l0,8.09862c0,0.67183 -0.54655,1.21838 -1.21838,1.21838l-16.12558,0zm19.49403,-15.05054l2.43675,0l0,9.317l-2.43675,0l0,-9.317zm2.43675,-27.44932l0,2.36508l-2.43675,0l0,-2.36508c0,-1.85738 -1.51107,-3.36845 -3.36845,-3.36845l-5.80521,0l0,-2.43675l5.80521,0c3.20103,0 5.80521,2.60417 5.80521,5.80521zm-63.14059,-5.80521l5.80521,0l0,2.43675l-5.80521,0c-1.85738,0 -3.36845,1.51107 -3.36845,3.36845l0,2.36508l-2.43675,0l0,-2.36508c0,-3.20103 2.60417,-5.80521 5.80521,-5.80521zm-5.80521,47.08669l0,-2.36508l2.43675,0l0,2.36508c0,1.85738 1.51107,3.36845 3.36845,3.36845l5.80521,0l0,2.43675l-5.80521,0c-3.20103,0 -5.80521,-2.60417 -5.80521,-5.80521zm63.14059,5.80521l-5.80521,0l0,-2.43675l5.80521,0c1.85738,0 3.36845,-1.51107 3.36845,-3.36845l0,-2.36508l2.43675,0l0,2.36508c0,3.20103 -2.60417,5.80521 -5.80521,5.80521z"/>
   <g stroke="null" transform="matrix(0.1433384638154887,0,0,0.1433384638154887,-148.09216034682163,-159.76030073722637) " id="svg_37"/>
   <g stroke="null" transform="matrix(0.1433384638154887,0,0,0.1433384638154887,-148.09216034682163,-159.76030073722637) " id="svg_38"/>
   <g stroke="null" transform="matrix(0.1433384638154887,0,0,0.1433384638154887,-148.09216034682163,-159.76030073722637) " id="svg_39"/>
   <g stroke="null" transform="matrix(0.1433384638154887,0,0,0.1433384638154887,-148.09216034682163,-159.76030073722637) " id="svg_40"/>
   <g stroke="null" transform="matrix(0.1433384638154887,0,0,0.1433384638154887,-148.09216034682163,-159.76030073722637) " id="svg_41"/>
   <g stroke="null" transform="matrix(0.1433384638154887,0,0,0.1433384638154887,-148.09216034682163,-159.76030073722637) " id="svg_42"/>
   <g stroke="null" transform="matrix(0.1433384638154887,0,0,0.1433384638154887,-148.09216034682163,-159.76030073722637) " id="svg_43"/>
   <g stroke="null" transform="matrix(0.1433384638154887,0,0,0.1433384638154887,-148.09216034682163,-159.76030073722637) " id="svg_44"/>
   <g stroke="null" transform="matrix(0.1433384638154887,0,0,0.1433384638154887,-148.09216034682163,-159.76030073722637) " id="svg_45"/>
   <g stroke="null" transform="matrix(0.1433384638154887,0,0,0.1433384638154887,-148.09216034682163,-159.76030073722637) " id="svg_46"/>
   <g stroke="null" transform="matrix(0.1433384638154887,0,0,0.1433384638154887,-148.09216034682163,-159.76030073722637) " id="svg_47"/>
   <g stroke="null" transform="matrix(0.1433384638154887,0,0,0.1433384638154887,-148.09216034682163,-159.76030073722637) " id="svg_48"/>
   <g stroke="null" transform="matrix(0.1433384638154887,0,0,0.1433384638154887,-148.09216034682163,-159.76030073722637) " id="svg_49"/>
   <g stroke="null" transform="matrix(0.1433384638154887,0,0,0.1433384638154887,-148.09216034682163,-159.76030073722637) " id="svg_50"/>
   <g stroke="null" transform="matrix(0.1433384638154887,0,0,0.1433384638154887,-148.09216034682163,-159.76030073722637) " id="svg_51"/>
  </g>
 </g>
</svg>